SplineFontDB: 3.0
FontName: Ambivium-Bold
FullName: Ambivium Bold
FamilyName: Ambivium
Weight: Bold
Copyright: Copyright (c) 2015 by Maurizio M. Gavioli.\nAdaptation of Junction font by Caroline Hadilaksono, copyright (c) 2010 by Caroline Hadilaksono. SIL Open Font License (OFL).
FontLog: "2015-04-22: Initial web version from cleaned-up Junction originals (MMG)"
Version: 001.001
ItalicAngle: 0
UnderlinePosition: -100
UnderlineWidth: 50
Ascent: 750
Descent: 250
InvalidEm: 0
sfntRevision: 0x00010000
LayerCount: 2
Layer: 0 0 "Back" 1
Layer: 1 0 "Fore" 0
XUID: [1021 883 739783980 11638335]
StyleMap: 0x0000
FSType: 4
OS2Version: 3
OS2_WeightWidthSlopeOnly: 0
OS2_UseTypoMetrics: 1
CreationTime: 1265038620
ModificationTime: 1430007401
PfmFamily: 17
TTFWeight: 700
TTFWidth: 5
LineGap: 0
VLineGap: 0
Panose: 2 11 8 3 0 0 0 2 0 4
OS2TypoAscent: 750
OS2TypoAOffset: 0
OS2TypoDescent: -250
OS2TypoDOffset: 0
OS2TypoLinegap: 0
OS2WinAscent: 841
OS2WinAOffset: 0
OS2WinDescent: 275
OS2WinDOffset: 0
HheadAscent: 750
HheadAOffset: 0
HheadDescent: -250
HheadDOffset: 0
OS2SubXSize: 650
OS2SubYSize: 600
OS2SubXOff: 0
OS2SubYOff: 75
OS2SupXSize: 650
OS2SupYSize: 600
OS2SupXOff: 0
OS2SupYOff: 350
OS2StrikeYSize: 50
OS2StrikeYPos: 330
OS2CapHeight: 770
OS2XHeight: 550
OS2Vendor: 'pyrs'
OS2CodePages: 20000083.00000000
OS2UnicodeRanges: 00000007.00000000.00000000.00000000
Lookup: 1 0 0 "'aalt' Access All Alternates in Latin lookup 0" { "'aalt' Access All Alternates in Latin lookup 0 subtable"  } ['aalt' ('latn' <'dflt' > ) ]
Lookup: 1 0 0 "'lnum' Lining Figures in Latin lookup 1" { "'lnum' Lining Figures in Latin lookup 1 subtable"  } ['lnum' ('latn' <'dflt' > ) ]
Lookup: 4 0 1 "'liga' Standard Ligatures in Latin lookup 2" { "'liga' Standard Ligatures in Latin lookup 2 subtable"  } ['liga' ('latn' <'dflt' > ) ]

StartChar: h
Encoding: 104 104 1
Width: 609
Flags: MW
HStem: 446 115<305.261 399.822>
VStem: 63 135<0 360.125 487 820> 407 134<0 441.182>
LayerCount: 2
Back
Fore
SplineSet
198 0 m 1
 63 0 l 1
 63 820 l 1
 198 820 l 1
 198 487 l 1
 253 528 323 561 395 561 c 3
 499 561 541 494 541 384 c 2
 541 0 l 1
 407 0 l 1
 407 384 l 2
 407 429 390 446 366 446 c 3
 312 446 221 364 198 339 c 1
 198 0 l 1
EndSplineSet
Validated: 1
EndChar

StartChar: k
Encoding: 107 107 4
Width: 571
Flags: MW
VStem: 64 134<0 242 397 820>
LayerCount: 2
Back
Fore
SplineSet
584 0 m 1
 434 0 l 1
 403 9 333 90 275 157 c 1
 275 156 l 1
 209 231 203 238 198 242 c 1
 198 0 l 1
 64 0 l 1
 64 820 l 1
 198 820 l 1
 198 397 l 1
 250 434 328 499 354 550 c 1
 488 550 l 1
 470 481 362 388 281 326 c 1
 293 318 304 309 314 297 c 0
 407 188 542 28 584 0 c 1
EndSplineSet
Validated: 1
EndChar

StartChar: l
Encoding: 108 108 5
Width: 283
Flags: W
HStem: -11 102<200.333 261>
VStem: 59 134<100.23 820>
LayerCount: 2
Back
Fore
SplineSet
59 820 m 1
 193 820 l 1
 193 166 l 2
 193 105 199 92 266 91 c 1
 261 -11 l 1
 217 -11 134 -7 100 26 c 0
 59 67 59 118 59 154 c 2
 59 820 l 1
EndSplineSet
Validated: 1
EndChar

StartChar: m
Encoding: 109 109 6
Width: 912
Flags: MW
HStem: 445 116<293.768 374.704 605.088 688.485>
VStem: 68 135<0 364.567 479 550> 382 134<0 366.589> 695 135<0 441.182>
CounterMasks: 1 70
LayerCount: 2
Back
SplineSet
203 0 m 1xbc
 68 0 l 1
 68 550 l 1
 203 550 l 1xdc
 203 479 l 1
 248 515 302 561 370 561 c 3
 440 561 482 517 502 466 c 1
 550 509 607 561 683 561 c 3
 788 561 830 494 830 384 c 2
 830 0 l 1
 695 0 l 1
 695 384 l 2
 695 527 542 381 516 341 c 1
 516 0 l 1
 382 0 l 1
 382 384 l 2
 382 526 232 381 203 341 c 1
 203 0 l 1xbc
EndSplineSet
Fore
SplineSet
203 0 m 1
 68 0 l 1
 68 550 l 1
 203 550 l 1
 203 479 l 1
 248 515 302 561 370 561 c 3
 440 561 482 517 502 466 c 1
 550 509 607 561 683 561 c 3
 788 561 830 494 830 384 c 2
 830 0 l 1
 695 0 l 1
 695 384 l 2
 695 429 680 445 658 445 c 3
 611 445 534 368 516 341 c 1
 516 0 l 1
 382 0 l 1
 382 384 l 2
 382 429 367 445 346 445 c 3
 300 445 223 368 203 341 c 1
 203 0 l 1
EndSplineSet
Validated: 1
EndChar

StartChar: n
Encoding: 110 110 7
Width: 609
Flags: MW
HStem: 447 114<308.218 399.991>
VStem: 63 135<0 358.622 480 550> 407 134<0 441.182>
LayerCount: 2
Back
Fore
SplineSet
198 0 m 1
 63 0 l 1
 63 550 l 1
 198 550 l 1
 198 480 l 1
 253 521 323 561 395 561 c 0
 499 561 541 494 541 384 c 2
 541 0 l 1
 407 0 l 1
 407 384 l 2
 407 430 391 447 367 447 c 3
 315 447 226 365 198 339 c 1
 198 0 l 1
EndSplineSet
Validated: 1
EndChar

StartChar: o
Encoding: 111 111 8
Width: 591
Flags: W
HStem: -11 99<227.475 345.957> 461 100<227.475 344.764>
VStem: 35 135<158.658 394.12> 403 135<155.302 389.17>
LayerCount: 2
Back
Fore
SplineSet
35 275 m 3
 35 485 160 561 287 561 c 3
 413 561 538 484 538 275 c 3
 538 64 413 -11 287 -11 c 3
 160 -11 35 59 35 275 c 3
403 275 m 3
 403 407 344 461 287 461 c 3
 229 461 170 412 170 275 c 3
 170 140 229 88 287 88 c 3
 344 88 403 137 403 275 c 3
EndSplineSet
Validated: 1
EndChar

StartChar: p
Encoding: 112 112 9
Width: 627
Flags: W
HStem: -11 112<258.715 384.336> 449 112<282.492 397.442>
VStem: 64 133<-243 52 149.655 371.37 478 550> 438 135<164.984 399.027>
LayerCount: 2
Back
SplineSet
197 -243 m 1
 64 -243 l 1
 64 550 l 1
 197 550 l 1
 197 478 l 1
 219 513 282 561 360 561 c 0
 491 561 573 428 573 283 c 0
 573 97 480 -11 329 -11 c 0
 261 -11 224 30 197 52 c 1
 197 -243 l 1
360 449 m 0
 282 450 227 387 197 343 c 1
 197 167 l 1
 239 128 291 101 329 101 c 0
 395 101 438 168 438 283 c 0
 438 369 408 448 360 449 c 0
EndSplineSet
Fore
SplineSet
197 -243 m 1
 64 -243 l 1
 64 550 l 1
 197 550 l 1
 197 478 l 1
 219 513 282 561 360 561 c 3
 491 561 573 428 573 283 c 3
 573 97 480 -11 329 -11 c 3
 266 -11 222 26 197 52 c 1
 197 -243 l 1
360 449 m 3
 282 449 227 387 197 343 c 1
 197 167 l 1
 239 128 291 101 329 101 c 3
 395 101 438 168 438 283 c 3
 438 369 408 449 360 449 c 3
EndSplineSet
Validated: 1
EndChar

StartChar: q
Encoding: 113 113 10
Width: 629
Flags: W
HStem: -11 109<210.558 320.587> 453 108<223.664 342.629>
VStem: 35 135<150.223 385.784> 411 135<-243 73 184.798 399.673 507 550>
LayerCount: 2
Back
SplineSet
248 -11 m 0
 117 -10 35 122 35 267 c 0
 35 453 128 561 279 561 c 0
 333 561 386 528 411 507 c 1
 411 550 l 1
 546 550 l 1
 546 -243 l 1
 411 -243 l 1
 411 73 l 1
 378 29 315 -12 248 -11 c 0
248 98 m 2
 249 98 l 2
 325 96 381 170 411 216 c 1
 411 382 l 1
 368 421 316 453 279 453 c 0
 213 453 170 382 170 267 c 0
 170 181 200 99 248 98 c 2
EndSplineSet
Fore
SplineSet
248 -11 m 3
 117 -11 35 122 35 267 c 3
 35 453 128 561 279 561 c 3
 333 561 386 528 411 507 c 1
 411 550 l 1
 546 550 l 1
 546 -243 l 1
 411 -243 l 1
 411 73 l 1
 378 29 315 -11 248 -11 c 3
248 98 m 3
 328 98 380 168 411 216 c 1
 411 382 l 1
 368 421 316 453 279 453 c 3
 213 453 170 382 170 267 c 3
 170 181 200 98 248 98 c 3
EndSplineSet
Validated: 1
EndChar

StartChar: r
Encoding: 114 114 11
Width: 441
Flags: MW
HStem: 451 110<256.836 341.269>
VStem: 62 135<0 378.016>
LayerCount: 2
Back
Fore
SplineSet
62 550 m 1
 190 550 l 1
 190 496 l 1
 200 516 247 561 299 561 c 3
 395 561 455 491 455 491 c 1
 365 404 l 1
 365 404 329 451 302 451 c 3
 260 451 221 390 197 339 c 1
 197 0 l 1
 62 0 l 1
 62 550 l 1
EndSplineSet
Validated: 1
EndChar

StartChar: s
Encoding: 115 115 12
Width: 507
Flags: W
HStem: -11 101<188.79 311.273> 460 101<198.219 309.728>
VStem: 51 134<364.457 446.496> 329 134<108.547 197.272>
LayerCount: 2
Back
Fore
SplineSet
185 397 m 3
 185 364 229 351 272 337 c 0
 364 309 463 279 463 159 c 3
 463 43 358 -11 253 -11 c 3
 168 -11 75 31 21 115 c 1
 116 191 l 1
 150 128 206 91 255 90 c 3
 293 90 329 112 329 159 c 3
 329 201 278 218 233 232 c 0
 148 257 51 294 51 397 c 3
 51 537 185 561 243 561 c 3
 320 561 390 530 438 483 c 1
 353 402 l 1
 321 438 279 460 243 460 c 3
 224 460 185 451 185 397 c 3
EndSplineSet
Validated: 1
EndChar

StartChar: t
Encoding: 116 116 13
Width: 403
Flags: W
HStem: -11 107<173.5 292.881> 451 101<23 89 223 347>
VStem: 89 134<98.1489 451 552 750>
LayerCount: 2
Back
SplineSet
23 451 m 1
 23 552 l 1
 89 552 l 1
 89 750 l 1
 223 750 l 1
 223 552 l 1
 347 552 l 1
 347 451 l 1
 223 451 l 1
 223 167 l 2
 223 139 222 104 244 97 c 0
 262 91 290 112 321 143 c 1
 402 66 l 1
 348 9 292 -11 223 -11 c 0
 124 -11 89 60 89 167 c 2
 89 451 l 1
 23 451 l 1
EndSplineSet
Fore
SplineSet
23 451 m 1
 23 552 l 1
 89 552 l 1
 89 750 l 1
 223 750 l 1
 223 552 l 1
 347 552 l 1
 347 451 l 1
 223 451 l 1
 223 167 l 2
 223 125 227 96 251 96 c 3
 269 96 294 116 321 143 c 1
 402 66 l 1
 348 9 292 -11 223 -11 c 3
 124 -11 89 60 89 167 c 2
 89 451 l 1
 23 451 l 1
EndSplineSet
Validated: 1
EndChar

StartChar: u
Encoding: 117 117 14
Width: 609
Flags: MW
HStem: -11 112<190.032 281.308>
VStem: 49 135<104.492 550> 392 135<0 79 190.451 550>
LayerCount: 2
Back
SplineSet
184 166 m 1x78
 175 15 352 170 392 211 c 1
 392 550 l 1
 527 550 l 1
 527 0 l 1
 392 0 l 1
 392 79 l 1
 376 50 293 -11 196 -11 c 0xb8
 91 -11 49 56 49 166 c 2
 49 550 l 1
 184 550 l 1
 184 166 l 1x78
EndSplineSet
Fore
SplineSet
184 166 m 2
 184 122 191 101 221 101 c 3
 273 101 365 183 392 211 c 1
 392 550 l 1
 527 550 l 1
 527 0 l 1
 392 0 l 1
 392 79 l 1
 376 50 293 -11 196 -11 c 3
 91 -11 49 56 49 166 c 2
 49 550 l 1
 184 550 l 1
 184 166 l 2
EndSplineSet
Validated: 1
EndChar

StartChar: v
Encoding: 118 118 15
Width: 559
Flags: MW
LayerCount: 2
Back
Fore
SplineSet
10 550 m 1
 159 550 l 1
 271 216 l 1
 317 363 382 525 411 550 c 1
 557 550 l 1
 463 448 334 0 334 0 c 1
 221 0 l 1
 10 550 l 1
EndSplineSet
Validated: 1
EndChar

StartChar: w
Encoding: 119 119 16
Width: 782
Flags: MW
DStem2: 148 550 6 550 0.277719 -0.960662<0 319.618>
LayerCount: 2
Back
Fore
SplineSet
285 0 m 1
 165 0 l 1
 6 550 l 1
 148 550 l 1
 230 241 l 1
 318 550 l 1
 432 550 l 1
 520 239 l 1
 557 377 606 535 633 550 c 1
 769 550 l 1
 721 502 580 0 580 0 c 1
 467 0 l 1
 376 315 l 1
 285 0 l 1
EndSplineSet
Validated: 1
EndChar

StartChar: x
Encoding: 120 120 17
Width: 613
Flags: MW
DStem2: 201 550 40 550 0.571458 -0.820631<0 192.198 372.737 578.211> 235 281 309 171 0.600786 0.79941<-269.19 -43.4768>
LayerCount: 2
Back
Fore
SplineSet
40 550 m 1
 201 550 l 1
 309 391 l 1
 356 457 423 543 442 550 c 1
 605 550 l 1
 551 511 433 352 384 282 c 1
 384 282 584 0 584 0 c 1
 423 0 l 1
 309 171 l 1
 261 104 191 7 167 0 c 1
 2 0 l 1
 65 42 194 222 235 281 c 1
 235 281 40 550 40 550 c 1
EndSplineSet
Validated: 1
EndChar

StartChar: y
Encoding: 121 121 18
Width: 518
Flags: W
HStem: -259 104<1.98077 68.96>
DStem2: 131 550 -9 550 0.358076 -0.933692<0 328.321>
LayerCount: 2
Back
Fore
SplineSet
-9 550 m 1
 131 550 l 1
 250 244 l 1
 309 387 372 528 397 550 c 1
 551 550 l 1
 504 504 471 439 281 -25 c 0
 259 -80 230 -147 179 -195 c 0
 124 -249 53 -256 4 -259 c 1
 -26 -155 l 1
 48 -151 70 -136 86 -119 c 0
 104 -103 124 -68 155 8 c 0
 162 28 169 46 177 65 c 1
 -9 550 l 1
EndSplineSet
Validated: 1
EndChar

StartChar: z
Encoding: 122 122 19
Width: 521
Flags: W
HStem: 0 102<195 390> 449 101<29 304>
DStem2: 29 87 195 102 0.604916 0.796289<112.36 454.609>
LayerCount: 2
Back
Fore
SplineSet
486 131 m 1
 486 27 l 1
 462 0 390 0 390 0 c 1
 29 0 l 1
 29 87 l 1
 304 449 l 1
 29 449 l 1
 29 550 l 1
 470 550 l 1
 470 464 l 1
 195 102 l 1
 391 102 l 1
 391 102 449 102 486 131 c 1
EndSplineSet
Validated: 1
EndChar

StartChar: d
Encoding: 100 100 20
Width: 644
Flags: W
HStem: -7 111<214.744 333.59> 449 112<226.765 345.98>
VStem: 36 137<156.526 385.016> 414 135<181.868 395.74 520 820>
LayerCount: 2
Back
SplineSet
251 -7 m 0
 120 -7 36 122 36 267 c 0
 36 453 132 561 282 561 c 0
 326 561 369 548 414 520 c 1
 414 820 l 1
 549 820 l 1
 549 139 l 1
 549 139 544 84 613 62 c 1
 535 -19 l 1
 470 5 444 32 432 57 c 1
 384 18 322 -8 251 -7 c 0
253 104 m 0
 330 98 385 167 414 212 c 1
 414 377 l 1
 368 419 318 449 282 449 c 0
 216 449 173 382 173 267 c 0
 173 181 204 108 253 104 c 0
EndSplineSet
Fore
SplineSet
251 -7 m 3
 120 -7 36 122 36 267 c 3
 36 453 132 561 282 561 c 3
 326 561 369 548 414 520 c 1
 414 820 l 1
 549 820 l 1
 549 139 l 2
 549 115 566 72 613 62 c 1
 535 -19 l 1
 470 5 444 32 432 57 c 1
 384 18 322 -7 251 -7 c 3
253 104 m 3
 341 104 383 164 414 212 c 1
 414 377 l 1
 368 419 318 449 282 449 c 3
 216 449 173 382 173 267 c 3
 173 181 207 104 253 104 c 3
EndSplineSet
Validated: 1
EndChar

StartChar: period
Encoding: 46 46 21
Width: 210
Flags: W
HStem: -7 148<45.375 161.125>
VStem: 24 158<14.5 120.75>
LayerCount: 2
Back
Fore
SplineSet
24 69 m 3
 24 111 54 141 105 141 c 3
 152 141 182 111 182 69 c 3
 182 25 152 -7 105 -7 c 3
 54 -7 24 25 24 69 c 3
EndSplineSet
Validated: 1
EndChar

StartChar: comma
Encoding: 44 44 22
Width: 205
Flags: W
HStem: -141 276
VStem: 14 168<15.8118 108.847>
LayerCount: 2
Back
Fore
SplineSet
14 65 m 3
 14 106 49 135 96 135 c 3
 157 135 182 93 182 39 c 3
 182 -15 149 -76 97 -141 c 1
 19 -94 l 1
 47 -60 60 -34 68 -2 c 1
 33 8 14 32 14 65 c 3
EndSplineSet
Validated: 1
EndChar

StartChar: colon
Encoding: 58 58 23
Width: 260
Flags: W
HStem: -7 148<66.875 188.5> 336 148<66.875 188.5>
VStem: 43 169<17.0951 118.298 360.095 461.298>
LayerCount: 2
Back
Fore
SplineSet
43 69 m 3
 43 111 78 141 129 141 c 3
 177 141 212 111 212 69 c 3
 212 25 177 -7 129 -7 c 3
 78 -7 43 25 43 69 c 3
43 412 m 3
 43 454 78 484 129 484 c 3
 177 484 212 454 212 412 c 3
 212 368 177 336 129 336 c 3
 78 336 43 368 43 412 c 3
EndSplineSet
Validated: 1
EndChar

StartChar: semicolon
Encoding: 59 59 24
Width: 265
Flags: W
HStem: 336 148<66.875 188.5>
VStem: 48 169<15.8118 107.888 365.657 456.039>
LayerCount: 2
Back
Fore
SplineSet
48 65 m 3
 48 106 83 135 130 135 c 3
 191 135 217 93 217 39 c 3
 217 -15 183 -76 131 -141 c 1
 53 -94 l 1
 81 -60 94 -34 102 -2 c 1
 67 8 48 32 48 65 c 3
43 412 m 3
 43 454 78 484 129 484 c 3
 177 484 212 454 212 412 c 3
 212 368 177 336 129 336 c 3
 78 336 43 368 43 412 c 3
EndSplineSet
Validated: 1
EndChar

StartChar: question
Encoding: 63 63 25
Width: 507
Flags: W
HStem: -7 142<187.021 306.455> 715 103<200.775 322.337>
VStem: 130 131<253.777 338.667> 165 163<16.0985 112.995> 345 138<562.395 691.372>
LayerCount: 2
Back
Fore
SplineSet
299 237 m 1xe8
 207 163 l 1
 161 205 130 241 130 298 c 3
 130 363 178 413 239 467 c 0
 287 512 345 568 345 629 c 3
 345 660 337 715 256 715 c 3
 179 715 106 577 106 577 c 1
 16 663 l 1
 16 663 102 818 256 818 c 3
 451 818 483 698 483 628 c 3
 483 520 400 448 327 383 c 0
 291 350 261 319 261 297 c 3
 261 277 275 260 299 237 c 1xe8
165 65 m 3xd8
 165 106 200 135 247 135 c 3
 294 135 328 106 328 65 c 3
 328 24 294 -7 247 -7 c 3
 200 -7 165 24 165 65 c 3xd8
EndSplineSet
Validated: 1
EndChar

StartChar: endash
Encoding: 8211 8211 26
Width: 664
Flags: W
HStem: 232 98<34 616>
LayerCount: 2
Back
Fore
SplineSet
616 330 m 1
 616 232 l 1
 34 232 l 1
 34 330 l 1
 616 330 l 1
EndSplineSet
Validated: 1
EndChar

StartChar: hyphen
Encoding: 45 45 27
Width: 349
Flags: MW
HStem: 229 103<30 312>
LayerCount: 2
Back
Fore
SplineSet
312 332 m 1
 312 229 l 1
 30 229 l 1
 30 332 l 1
 312 332 l 1
EndSplineSet
Validated: 1
EndChar

StartChar: Z
Encoding: 90 90 28
Width: 616
Flags: W
HStem: 0 114<201 433> 656 114<38 383>
DStem2: 28 98 201 114 0.533254 0.845955<105.788 661.348>
LayerCount: 2
Back
Fore
SplineSet
574 143 m 1
 574 25 l 1
 528 0 433 0 433 0 c 1
 28 0 l 1
 28 98 l 1
 383 656 l 1
 38 656 l 1
 38 770 l 1
 554 770 l 1
 554 674 l 1
 201 114 l 1
 435 114 l 1
 435 114 495 114 574 143 c 1
EndSplineSet
Validated: 1
EndChar

StartChar: D
Encoding: 68 68 29
Width: 731
Flags: W
HStem: 0 109<218 426.767> 667 108<219.325 417.115>
VStem: 77 141<109 662.953> 535 142<243.974 532.043>
LayerCount: 2
Back
Fore
SplineSet
77 0 m 1
 77 755 l 1
 186 770 239 775 303 775 c 3
 494 775 677 717 677 380 c 3
 677 138 542 0 349 0 c 2
 77 0 l 1
535 380 m 3
 535 550 486 667 305 667 c 3
 268 667 238 663 218 660 c 1
 218 109 l 1
 349 109 l 2
 455 109 535 211 535 380 c 3
EndSplineSet
Validated: 1
EndChar

StartChar: A
Encoding: 65 65 30
Width: 713
Flags: MW
HStem: 250 108<276 420>
DStem2: -2 0 146 0 0.346044 0.938218<51.2145 316.913 432.082 637.135> 415 770 348 550 0.346044 -0.938218<183.223 388.276 503.099 769.836>
LayerCount: 2
Back
Fore
SplineSet
282 770 m 1
 415 770 l 1
 699 0 l 1
 552 0 l 1
 459 250 l 1
 236 250 l 1
 146 0 l 1
 -2 0 l 1
 282 770 l 1
420 358 m 1
 348 550 l 1
 276 358 l 1
 420 358 l 1
EndSplineSet
Validated: 1
EndChar

StartChar: B
Encoding: 66 66 31
Width: 640
Flags: W
HStem: 0 109<203 402.124> 334 109<203 370.58> 667 108<204.561 384.083>
VStem: 62 141<109 334 443 663.483> 418 138<484.032 632.081> 449 139<151.001 293.383>
LayerCount: 2
Back
SplineSet
296 775 m 0
 447 775 547 724 556 550 c 1
 555 482 528 434 491 401 c 1
 568 353 588 276 588 234 c 0
 588 172 588 -3 308 0 c 2
 62 0 l 1
 62 756 l 1
 127 762 l 2
 170 768 229 775 296 775 c 0
203 334 m 1
 203 109 l 1
 308 109 l 2
 447 109 449 190 449 234 c 0
 449 261 435 334 320 334 c 2
 203 334 l 1
418 553 m 1
 416 637 379 661 331 665 c 0
 318 666 306 667 294 667 c 0
 263 667 233 665 203 661 c 1
 203 443 l 1
 244 443 l 2
 340 443 412 452 418 553 c 1
EndSplineSet
Fore
SplineSet
296 775 m 0xf4
 469 775 556 695 556 550 c 3xf8
 556 482 528 434 491 401 c 1
 568 353 588 276 588 234 c 3
 588 101 535 0 308 0 c 2
 62 0 l 1
 62 756 l 1
 142 766 217 775 296 775 c 0xf4
203 334 m 1
 203 109 l 1
 308 109 l 2
 428 109 449 165 449 234 c 0xf4
 449 261 435 334 320 334 c 2
 203 334 l 1
418 553 m 3xf8
 418 641 379 667 294 667 c 0
 263 667 233 665 203 661 c 1
 203 443 l 1
 244 443 l 2
 357 443 418 465 418 553 c 3xf8
EndSplineSet
Validated: 1
EndChar

StartChar: G
Encoding: 71 71 32
Width: 753
Flags: W
HStem: -14 112<309.335 489.865> 286 110<364.746 535> 676 108<330.609 480.715>
VStem: 39 144<241.503 501.433> 535 137<135.893 286>
LayerCount: 2
Back
Fore
SplineSet
672 396 m 1
 672 158 l 2
 672 62 539 -14 414 -14 c 3
 110 -14 39 210 39 369 c 3
 39 679 253 784 409 784 c 3
 576 784 669 653 669 653 c 1
 576 560 l 1
 576 560 502 676 413 676 c 3
 321 676 183 591 183 369 c 3
 183 260 225 98 410 98 c 3
 456 98 535 132 535 167 c 2
 535 286 l 1
 470 286 l 2
 442 286 404 286 362 308 c 1
 362 411 l 1
 421 396 453 396 474 396 c 2
 672 396 l 1
EndSplineSet
Validated: 1
EndChar

StartChar: underscore
Encoding: 95 95 33
Width: 664
Flags: W
HStem: -98 97<34 616>
LayerCount: 2
Back
Fore
SplineSet
616 -1 m 1
 616 -98 l 1
 34 -98 l 1
 34 -1 l 1
 616 -1 l 1
EndSplineSet
Validated: 1
EndChar

StartChar: C
Encoding: 67 67 34
Width: 647
Flags: W
HStem: -14 111<293.771 447.715> 668 116<294.316 439.454>
VStem: 39 143<240.427 516.607>
LayerCount: 2
Back
SplineSet
608 663 m 1
 515 575 l 1
 515 575 457 668 364 668 c 0
 273 668 182 567 182 364 c 0
 182 213 266 100 365 97 c 0
 461 94 535 184 548 200 c 1
 638 110 l 1
 626 100 613 90 609 84 c 0
 573 48 509 -18 358 -14 c 0
 173 -10 39 148 39 364 c 0
 39 639 198 784 365 784 c 0
 538 784 608 663 608 663 c 1
EndSplineSet
Fore
SplineSet
608 663 m 1
 515 575 l 1
 515 575 457 668 364 668 c 3
 273 668 182 567 182 364 c 3
 182 213 266 97 365 97 c 3
 461 97 535 184 548 200 c 1
 638 110 l 1
 600 61 523 -14 358 -14 c 3
 179 -14 39 148 39 364 c 3
 39 639 198 784 365 784 c 3
 538 784 608 663 608 663 c 1
EndSplineSet
Validated: 1
EndChar

StartChar: asciicircum
Encoding: 94 94 35
Width: 657
Flags: MW
DStem2: 11 0 137 0 0.414415 0.910088<52.2163 494.324> 377 560 321 402 0.414415 -0.910088<120.587 562.694>
LayerCount: 2
Back
Fore
SplineSet
266 560 m 1
 377 560 l 1
 632 0 l 1
 505 0 l 1
 321 402 l 1
 321 402 137 0 137 0 c 1
 11 0 l 1
 266 560 l 1
EndSplineSet
Validated: 1
EndChar

StartChar: E
Encoding: 69 69 36
Width: 565
Flags: W
HStem: 0 109<203 534.95> 344 109<203 474> 662 108<203 521.95>
VStem: 62 141<109 344 453 662>
LayerCount: 2
Back
Fore
SplineSet
535 0 m 1
 62 0 l 1
 62 770 l 1
 393 770 l 2
 453 770 522 779 522 779 c 1
 522 662 l 1
 203 662 l 1
 203 453 l 1
 474 453 l 1
 474 344 l 1
 203 344 l 1
 203 109 l 1
 407 109 l 2
 467 109 535 117 535 117 c 1
 535 0 l 1
EndSplineSet
Validated: 1
EndChar

StartChar: F
Encoding: 70 70 37
Width: 543
Flags: MW
HStem: 344 109<202 474> 663 107<202 521.95>
VStem: 61 141<0 344 453 663>
LayerCount: 2
Back
Fore
SplineSet
202 0 m 1
 61 0 l 1
 61 770 l 1
 393 770 l 2
 453 770 522 779 522 779 c 1
 522 663 l 1
 202 663 l 1
 202 453 l 1
 474 453 l 1
 474 344 l 1
 202 344 l 1
 202 0 l 1
EndSplineSet
Validated: 1
EndChar

StartChar: H
Encoding: 72 72 38
Width: 745
Flags: MW
HStem: 343 109<204 524>
VStem: 63 141<0 343 452 770> 524 141<0 343 452 770>
LayerCount: 2
Back
Fore
SplineSet
204 0 m 1
 63 0 l 1
 63 770 l 1
 204 770 l 1
 204 452 l 1
 524 452 l 1
 524 770 l 1
 665 770 l 1
 665 0 l 1
 524 0 l 1
 524 343 l 1
 204 343 l 1
 204 0 l 1
EndSplineSet
Validated: 1
EndChar

StartChar: I
Encoding: 73 73 39
Width: 261
Flags: MW
VStem: 57 142<0 770>
LayerCount: 2
Back
Fore
SplineSet
199 0 m 1
 57 0 l 1
 57 770 l 1
 199 770 l 1
 199 0 l 1
EndSplineSet
Validated: 1
EndChar

StartChar: J
Encoding: 74 74 40
Width: 327
Flags: W
VStem: 124 141<-73.8183 770>
LayerCount: 2
Back
Fore
SplineSet
124 770 m 1
 265 770 l 1
 265 2 l 2
 265 -161 129 -228 46 -254 c 1
 1 -143 l 1
 61 -126 124 -84 124 2 c 2
 124 770 l 1
EndSplineSet
Validated: 1
EndChar

StartChar: O
Encoding: 79 79 41
Width: 760
Flags: W
HStem: -14 108<295.972 449.976> 677 107<297.395 453.597>
VStem: 40 141<240.695 528.652> 563 141<231.717 536.712>
LayerCount: 2
Back
Fore
SplineSet
374 784 m 3
 527 784 703 695 704 386 c 3
 704 71 536 -14 371 -14 c 3
 218 -14 40 71 40 384 c 3
 40 697 218 784 374 784 c 3
374 677 m 3
 287 677 181 606 181 386 c 3
 181 163 287 94 371 94 c 3
 463 94 562 162 563 384 c 3
 563 603 463 677 374 677 c 3
EndSplineSet
Validated: 1
EndChar

StartChar: K
Encoding: 75 75 42
Width: 617
Flags: MW
VStem: 63 141<0 326 504 770>
DStem2: 204 504 303 417 0.614559 0.788871<0 337.053>
LayerCount: 2
Back
Fore
SplineSet
63 770 m 1
 204 770 l 1
 204 504 l 1
 411 770 l 1
 578 770 l 1
 303 417 l 1
 330 408 358 391 380 368 c 0
 408 337 446 276 485 211 c 0
 530 136 580 56 627 0 c 1
 467 0 l 1
 434 35 393 104 354 170 c 0
 321 226 290 277 283 287 c 0
 261 314 236 326 211 326 c 2
 204 326 l 1
 204 0 l 1
 63 0 l 1
 63 770 l 1
EndSplineSet
Validated: 1
EndChar

StartChar: L
Encoding: 76 76 43
Width: 560
Flags: W
HStem: 0 109<203 534.95>
VStem: 62 141<109 770>
LayerCount: 2
Back
Fore
SplineSet
62 0 m 1
 62 770 l 1
 203 770 l 1
 203 109 l 1
 407 109 l 2
 467 109 535 117 535 117 c 1
 535 0 l 1
 62 0 l 1
EndSplineSet
Validated: 1
EndChar

StartChar: M
Encoding: 77 77 44
Width: 854
Flags: MW
VStem: 64 141<0 389> 630 141<0 389>
DStem2: 417 197 205 389 0.355588 -0.934643<-254.836 0> 417 197 480 0 0.357012 0.9341<0 255.391>
LayerCount: 2
Back
Fore
SplineSet
205 0 m 1
 64 0 l 1
 64 770 l 1
 199 770 l 1
 417 197 l 1
 636 770 l 1
 771 770 l 1
 771 0 l 1
 630 0 l 1
 630 389 l 1
 480 0 l 1
 355 0 l 1
 205 389 l 1
 205 0 l 1
EndSplineSet
Validated: 1
EndChar

StartChar: N
Encoding: 78 78 45
Width: 727
Flags: MW
VStem: 63 141<0 510> 507 141<261 770>
DStem2: 194 769 204 510 0.523817 -0.851831<225.862 596.685>
LayerCount: 2
Back
Fore
SplineSet
204 0 m 1
 63 0 l 1
 63 770 l 1
 194 769 l 1
 507 261 l 1
 507 770 l 1
 648 770 l 1
 648 0 l 1
 517 1 l 1
 204 510 l 1
 204 0 l 1
EndSplineSet
Validated: 1
EndChar

StartChar: T
Encoding: 84 84 46
Width: 561
Flags: MW
HStem: 661 109<-12 202 343 561>
VStem: 202 141<0 661>
LayerCount: 2
Back
Fore
SplineSet
-12 661 m 1
 -12 770 l 1
 561 770 l 1
 561 661 l 1
 343 661 l 1
 343 0 l 1
 202 0 l 1
 202 661 l 1
 -12 661 l 1
EndSplineSet
Validated: 1
EndChar

StartChar: Q
Encoding: 81 81 47
Width: 760
Flags: W
HStem: -128 106<465.87 624.397> 677 107<297.395 453.597>
VStem: 40 141<236.665 528.652> 563 141<231.151 536.712>
LayerCount: 2
Back
Fore
SplineSet
374 784 m 3
 527 784 703 695 704 386 c 3
 704 132 591 27 463 -5 c 1
 476 -14 497 -22 521 -22 c 3
 545 -22 582 -14 631 2 c 1
 663 -101 l 1
 620 -120 552 -128 521 -128 c 3
 386 -128 321 -52 299 -7 c 1
 167 19 40 122 40 384 c 3
 40 697 218 784 374 784 c 3
374 677 m 3
 287 677 181 606 181 386 c 3
 181 163 287 94 371 94 c 3
 463 94 562 162 563 384 c 3
 563 603 463 677 374 677 c 3
EndSplineSet
Validated: 1
EndChar

StartChar: P
Encoding: 80 80 48
Width: 622
Flags: MW
HStem: 229 112<243.242 388.665> 675 109<245.18 378.73>
VStem: 62 141<0 254 373.967 650.948 730 770> 442 139<404.589 611.528>
LayerCount: 2
Back
Fore
SplineSet
203 0 m 1
 62 0 l 1
 62 770 l 1
 203 770 l 1
 203 730 l 1
 216 747 264 784 331 784 c 3
 479 784 581 678 581 525 c 3
 581 331 485 229 324 229 c 3
 276 229 236 239 203 254 c 1
 203 0 l 1
442 525 m 3
 442 613 390 675 303 675 c 3
 273 675 235 659 203 638 c 1
 203 390 l 1
 240 359 284 341 328 341 c 3
 396 341 442 401 442 525 c 3
EndSplineSet
Validated: 1
EndChar

StartChar: R
Encoding: 82 82 49
Width: 658
Flags: MW
HStem: 307 108<204 280.792> 673 111<246.13 387.833>
VStem: 63 141<0 307 415 649.771 730 770> 429 139<464.796 630.717>
LayerCount: 2
Back
Fore
SplineSet
204 0 m 1
 63 0 l 1
 63 770 l 1
 204 770 l 1
 204 730 l 1
 219 748 263 784 337 784 c 3
 474 784 568 698 568 557 c 3
 568 417 497 351 417 323 c 1
 452 287 485 240 516 193 c 0
 559 129 604 64 683 0 c 1
 510 0 l 1
 462 37 428 86 394 139 c 0
 346 213 293 292 248 307 c 1
 204 307 l 1
 204 0 l 1
317 415 m 2
 365 415 428 442 429 557 c 0
 429 627 388 673 324 673 c 3
 281 673 243 661 204 638 c 1
 204 415 l 1
 317 415 l 2
EndSplineSet
Validated: 1
EndChar

StartChar: S
Encoding: 83 83 50
Width: 623
Flags: W
HStem: -14 112<237.182 392.546> 672 112<236.231 378.15>
VStem: 61 139<508.479 635.261> 442 139<146.566 276.146>
LayerCount: 2
Back
Fore
SplineSet
30 151 m 1
 128 237 l 1
 186 144 243 99 318 98 c 0
 385 98 442 137 442 216 c 3
 442 295 371 318 294 341 c 0
 172 377 61 421 61 563 c 3
 61 753 225 784 301 784 c 3
 406 784 477 746 538 674 c 1
 446 595 l 1
 401 641 359 672 301 672 c 3
 268 672 200 657 200 562 c 3
 200 500 263 476 334 456 c 0
 455 418 581 369 581 216 c 3
 581 61 454 -14 315 -14 c 3
 188 -14 101 39 30 151 c 1
EndSplineSet
Validated: 1
EndChar

StartChar: U
Encoding: 85 85 51
Width: 688
Flags: W
HStem: -11 109<260.124 411.612>
VStem: 62 142<160.834 770> 469 141<160.211 770>
LayerCount: 2
Back
Fore
SplineSet
610 246 m 2
 609 15 427 -11 337 -11 c 3
 246 -11 63 17 62 246 c 2
 62 770 l 1
 204 770 l 1
 204 248 l 2
 204 116 292 98 337 98 c 3
 381 98 468 119 469 246 c 2
 469 770 l 1
 610 770 l 1
 610 246 l 2
EndSplineSet
Validated: 1
EndChar

StartChar: braceleft
Encoding: 123 123 52
Width: 473
Flags: W
HStem: -265 117<222 359.768> 233 84<55 130.626> 710 117<222 359.768>
VStem: 147 137<-144.494 181 334.232 709.311>
LayerCount: 2
Back
Fore
SplineSet
278 827 m 3
 354 827 420 783 420 783 c 1
 377 675 l 1
 377 675 339 710 312 710 c 3
 296 710 284 699 284 664 c 2
 284 367 l 2
 284 364 274 293 213 276 c 1
 274 259 284 208 284 182 c 2
 284 -103 l 2
 284 -137 297 -148 312 -148 c 3
 339 -148 377 -113 377 -113 c 1
 420 -222 l 1
 420 -222 354 -265 278 -265 c 3
 166 -265 147 -157 147 -103 c 2
 147 181 l 1
 147 181 147 233 55 233 c 1
 55 317 l 1
 146 317 147 366 147 368 c 2
 147 664 l 2
 147 719 166 827 278 827 c 3
EndSplineSet
Validated: 1
EndChar

StartChar: V
Encoding: 86 86 53
Width: 689
Flags: MW
DStem2: 143 770 -3 770 0.335251 -0.942129<0 580.383> 337 223 403 0 0.335251 0.942129<0 580.383>
LayerCount: 2
Back
Fore
SplineSet
403 0 m 1
 271 0 l 1
 -3 770 l 1
 143 770 l 1
 337 223 l 1
 531 770 l 1
 677 770 l 1
 403 0 l 1
EndSplineSet
Validated: 1
EndChar

StartChar: W
Encoding: 87 87 54
Width: 981
Flags: MW
DStem2: 148 770 4 770 0.27241 -0.962181<0 514.162> 280 273 339 0 0.254876 0.966974<0 262.488> 678 271 479 492 0.253921 -0.967225<-264.287 0> 678 271 737 0 0.27241 0.962181<0 516.087>
LayerCount: 2
Back
Fore
SplineSet
339 0 m 1
 222 0 l 1
 4 770 l 1
 148 770 l 1
 280 273 l 1
 411 770 l 1
 547 770 l 1
 678 271 l 1
 810 770 l 1
 955 770 l 1
 737 0 l 1
 620 0 l 1
 479 492 l 1
 339 0 l 1
EndSplineSet
Validated: 1
EndChar

StartChar: X
Encoding: 88 88 55
Width: 660
Flags: MW
DStem2: 156 770 -3 770 0.538432 -0.842669<0 306.788 522.511 827.076> -3 0 159 0 0.536875 0.843661<86.9738 390.462 606.439 912.688>
LayerCount: 2
Back
Fore
SplineSet
487 770 m 1
 648 770 l 1
 403 384 l 1
 403 384 648 0 648 0 c 1
 487 0 l 1
 322 256 l 1
 159 0 l 1
 -3 0 l 1
 241 384 l 1
 -3 770 l 1
 156 770 l 1
 322 512 l 1
 487 770 l 1
EndSplineSet
Validated: 1
EndChar

StartChar: Y
Encoding: 89 89 56
Width: 620
Flags: MW
VStem: 234 140<0 368>
DStem2: 135 770 -23 770 0.538637 -0.842538<0 314.841> 305 505 374 368 0.535652 0.844439<0 314.837>
LayerCount: 2
Back
Fore
SplineSet
475 770 m 1
 629 770 l 1
 374 368 l 1
 374 0 l 1
 234 0 l 1
 234 368 l 1
 -23 770 l 1
 135 770 l 1
 305 505 l 1
 475 770 l 1
EndSplineSet
Validated: 1
EndChar

StartChar: zero
Encoding: 48 48 57
Width: 615
Flags: W
HStem: -14 106<235.067 366.933> 476 106<235.067 366.933>
VStem: 38 137<162.943 405.057> 427 137<162.943 405.057>
LayerCount: 2
Back
Fore
SplineSet
38 284 m 3
 38 513 175 582 301 582 c 3
 427 582 564 513 564 284 c 3
 564 55 427 -14 301 -14 c 3
 175 -14 38 55 38 284 c 3
427 284 m 3
 427 431 362 476 301 476 c 3
 240 476 175 431 175 284 c 3
 175 137 240 92 301 92 c 3
 362 92 427 137 427 284 c 3
EndSplineSet
Validated: 1
Substitution2: "'lnum' Lining Figures in Latin lookup 1 subtable" zero.lnum
Substitution2: "'aalt' Access All Alternates in Latin lookup 0 subtable" zero.lnum
EndChar

StartChar: one
Encoding: 49 49 58
Width: 368
Flags: MW
VStem: 161 142<0 412>
LayerCount: 2
Back
Fore
SplineSet
303 0 m 1
 161 0 l 1
 161 412 l 1
 102 362 l 1
 20 456 l 1
 177 575 l 1
 303 575 l 1
 303 0 l 1
EndSplineSet
Validated: 1
Substitution2: "'lnum' Lining Figures in Latin lookup 1 subtable" one.lnum
Substitution2: "'aalt' Access All Alternates in Latin lookup 0 subtable" one.lnum
EndChar

StartChar: two
Encoding: 50 50 59
Width: 541
Flags: W
HStem: 0 109<248 497> 476 110<195.746 307.856>
VStem: 328 137<347.448 455.87>
LayerCount: 2
Back
SplineSet
142 393 m 1
 125 359 l 1
 125 359 36 448 36 456 c 1
 67 508 134 585 255 586 c 0
 382 586 465 519 465 395 c 0
 465 294 337 174 248 109 c 1
 497 109 l 1
 497 0 l 1
 27 0 l 1
 27 97 l 2
 29 97 314 294 327 395 c 0
 333 451 293 477 254 476 c 0
 183 476 142 393 142 393 c 1
EndSplineSet
Fore
SplineSet
142 393 m 1
 125 359 l 1
 125 359 36 448 36 456 c 1
 67 508 134 585 255 586 c 3
 382 586 465 519 465 395 c 3
 465 294 337 174 248 109 c 1
 497 109 l 1
 497 0 l 1
 27 0 l 1
 27 97 l 1
 116 160 328 313 328 406 c 3
 328 454 291 476 254 476 c 3
 183 476 142 393 142 393 c 1
EndSplineSet
Validated: 1
Substitution2: "'lnum' Lining Figures in Latin lookup 1 subtable" two.lnum
Substitution2: "'aalt' Access All Alternates in Latin lookup 0 subtable" two.lnum
EndChar

StartChar: three
Encoding: 51 51 60
Width: 548
Flags: W
HStem: -194 112<124.125 272.748> 474 111<173.616 270.216>
VStem: 282 135<357.8 461.995> 364 136<12.6159 162.928>
LayerCount: 2
Back
Fore
SplineSet
114 386 m 1xe0
 31 468 l 1
 31 468 92 585 228 585 c 3
 329 585 417 516 417 417 c 3xe0
 417 367 386 323 350 290 c 1
 432 263 500 192 500 102 c 3
 500 -102 323 -194 199 -194 c 3
 95 -194 7 -118 7 -118 c 1
 91 -39 l 1
 91 -39 141 -82 198 -82 c 3
 264 -82 364 -26 364 102 c 3xd0
 364 152 324 199 278 199 c 0
 193 199 122 176 115 175 c 1
 115 269 l 1
 203 302 282 347 282 417 c 3
 282 452 256 474 229 474 c 3
 161 474 114 386 114 386 c 1xe0
EndSplineSet
Validated: 1
Substitution2: "'lnum' Lining Figures in Latin lookup 1 subtable" three.lnum
Substitution2: "'aalt' Access All Alternates in Latin lookup 0 subtable" three.lnum
EndChar

StartChar: four
Encoding: 52 52 61
Width: 626
Flags: W
HStem: 0 109<197 361 503 603>
VStem: 361 142<-194 0 109 331>
DStem2: 14 66 197 109 0.602501 0.798118<144.577 420.569>
LayerCount: 2
Back
Fore
SplineSet
603 109 m 1
 603 0 l 1
 503 0 l 1
 503 -194 l 1
 361 -194 l 1
 361 0 l 1
 14 0 l 1
 14 66 l 1
 399 576 l 1
 503 576 l 1
 503 109 l 1
 603 109 l 1
361 331 m 1
 197 109 l 1
 361 109 l 1
 361 331 l 1
EndSplineSet
Validated: 1
Substitution2: "'lnum' Lining Figures in Latin lookup 1 subtable" four.lnum
Substitution2: "'aalt' Access All Alternates in Latin lookup 0 subtable" four.lnum
EndChar

StartChar: five
Encoding: 53 53 62
Width: 601
Flags: W
HStem: -194 106<206.075 345.325> 232 105<208.599 355.509> 467 108<208 492>
VStem: 67 141<327 467> 412 135<-11.4066 176.208>
LayerCount: 2
Back
Fore
SplineSet
208 467 m 1
 208 327 l 1
 228 333 254 337 285 337 c 3
 457 337 547 238 547 105 c 3
 547 -109 431 -194 275 -194 c 3
 135 -194 44 -94 44 -94 c 1
 120 -3 l 1
 120 -3 205 -88 275 -88 c 3
 350 -88 412 -32 412 103 c 3
 412 160 372 232 285 232 c 3
 249 232 191 216 171 177 c 1
 67 177 l 1
 67 575 l 1
 492 575 l 1
 492 467 l 1
 208 467 l 1
EndSplineSet
Validated: 1
Substitution2: "'lnum' Lining Figures in Latin lookup 1 subtable" five.lnum
Substitution2: "'aalt' Access All Alternates in Latin lookup 0 subtable" five.lnum
EndChar

StartChar: six
Encoding: 54 54 63
Width: 613
Flags: W
HStem: -14 105<249.27 370.079> 369 107<273.156 390.721> 654 111<282.037 409.82>
VStem: 426 136<152.84 331.394>
LayerCount: 2
Back
Fore
SplineSet
334 476 m 3
 456 476 562 415 562 244 c 3
 562 149 502 -14 311 -14 c 3
 140 -14 42 115 42 346 c 3
 42 571 167 765 340 765 c 3
 436 765 520 701 538 687 c 1
 456 601 l 1
 456 601 395 654 344 654 c 3
 245 654 197 527 181 415 c 1
 232 461 287 476 334 476 c 3
311 91 m 3
 398 91 426 189 426 244 c 3
 426 338 383 369 334 369 c 3
 292 369 237 339 185 231 c 1
 203 140 248 91 311 91 c 3
EndSplineSet
Validated: 1
Substitution2: "'lnum' Lining Figures in Latin lookup 1 subtable" six.lnum
Substitution2: "'aalt' Access All Alternates in Latin lookup 0 subtable" six.lnum
EndChar

StartChar: seven
Encoding: 55 55 64
Width: 511
Flags: W
HStem: 460 116<23 328>
LayerCount: 2
Back
Fore
SplineSet
23 460 m 1
 23 576 l 1
 492 576 l 1
 492 499 l 1
 415 336 163 -142 60 -187 c 1
 -24 -111 l 1
 41 -71 232 268 328 460 c 1
 23 460 l 1
EndSplineSet
Validated: 1
Substitution2: "'lnum' Lining Figures in Latin lookup 1 subtable" seven.lnum
Substitution2: "'aalt' Access All Alternates in Latin lookup 0 subtable" seven.lnum
EndChar

StartChar: nine
Encoding: 57 57 65
Width: 613
Flags: W
HStem: -205 112<190.18 317.833> 85 107<208.046 326.296> 469 106<229.382 351.187>
VStem: 38 136<228.856 407.673>
LayerCount: 2
Back
Fore
SplineSet
265 85 m 3
 144 85 38 145 38 316 c 3
 38 412 98 575 288 575 c 3
 460 575 558 445 558 214 c 3
 558 -10 432 -205 260 -205 c 3
 164 -205 80 -141 62 -127 c 1
 144 -41 l 1
 144 -41 205 -93 256 -93 c 3
 355 -93 403 33 419 146 c 1
 367 99 313 85 265 85 c 3
288 469 m 3
 202 469 174 372 174 316 c 3
 174 222 217 192 265 192 c 3
 307 192 363 221 415 330 c 1
 397 420 351 469 288 469 c 3
EndSplineSet
Validated: 1
Substitution2: "'lnum' Lining Figures in Latin lookup 1 subtable" nine.lnum
Substitution2: "'aalt' Access All Alternates in Latin lookup 0 subtable" nine.lnum
EndChar

StartChar: eight
Encoding: 56 56 66
Width: 587
Flags: W
HStem: -14 103<212.629 364.336> 667 98<218.838 353.732>
VStem: 42 135<120.631 244.757> 60 136<527.868 645.84> 377 137<521.969 645.84> 396 136<120.481 228.744>
LayerCount: 2
Back
SplineSet
514 591 m 0xe0
 514 497 436 427 378 387 c 1
 460 327 532 260 532 174 c 0xd0
 532 -24 300 -14 286 -14 c 0
 273 -14 42 -21 42 174 c 0
 43 268 117 345 180 390 c 1
 114 447 60 514 60 591 c 0
 60 722 179 765 286 765 c 0
 393 765 514 722 514 591 c 0xe0
396 174 m 0
 396 223 340 273 268 326 c 1
 226 294 183 240 177 173 c 1
 179 89 280 89 286 89 c 0
 293 89 396 85 396 174 c 0
196 591 m 0
 196 539 238 496 286 455 c 1
 322 478 377 525 377 591 c 0
 377 651 330 667 286 667 c 0
 243 667 196 651 196 591 c 0
EndSplineSet
Fore
SplineSet
514 591 m 3xd8
 514 497 436 427 378 387 c 1
 460 327 532 260 532 174 c 3
 532 37 419 -14 286 -14 c 3
 153 -14 42 37 42 174 c 3xe4
 42 268 117 345 180 390 c 1
 114 447 60 514 60 591 c 3
 60 722 179 765 286 765 c 3
 393 765 514 722 514 591 c 3xd8
396 174 m 3
 396 223 340 273 268 326 c 1
 223 292 177 228 177 173 c 3
 177 113 237 89 286 89 c 3
 334 89 396 108 396 174 c 3
196 591 m 3xd8
 196 539 238 496 286 455 c 1
 322 478 377 525 377 591 c 3
 377 651 330 667 286 667 c 3
 243 667 196 651 196 591 c 3xd8
EndSplineSet
Validated: 1
Substitution2: "'lnum' Lining Figures in Latin lookup 1 subtable" eight.lnum
Substitution2: "'aalt' Access All Alternates in Latin lookup 0 subtable" eight.lnum
EndChar

StartChar: ampersand
Encoding: 38 38 67
Width: 889
Flags: W
HStem: -7 114<236.549 402.542 653.87 710.125> 675 95<274.105 408.877>
VStem: 41 137<154.791 277.209> 112 137<543.912 651.098> 432 137<547.929 651.794>
DStem2: 318 485 202 424 0.685872 -0.727722<-122.416 -35.1701 108.245 303.53> 525 263 613 172 0.461987 0.886886<0 164.984>
LayerCount: 2
Back
SplineSet
41 209 m 3xe8
 41 309 114 373 202 424 c 1
 149 485 112 541 112 596 c 3xd8
 112 728 234 770 342 770 c 3
 451 770 569 728 569 596 c 3
 569 512 486 456 392 406 c 1
 433 360 471 319 525 263 c 1
 540 290 551 314 565 343 c 0
 572 359 590 395 598 411 c 1
 707 357 l 1
 678 297 l 2
 658 257 640 214 613 172 c 1
 655 132 669 122 673 119 c 0
 688 107 706 115 732 174 c 1
 836 115 l 1
 781 -11 720 -12 675 -5 c 0
 647 0 598 27 540 77 c 1
 486 27 415 -7 309 -7 c 3
 199 -7 41 51 41 209 c 3xe8
EndSplineSet
Fore
SplineSet
41 209 m 3xe8
 41 309 114 373 202 424 c 1
 149 485 112 541 112 596 c 3xd8
 112 728 234 770 342 770 c 3
 451 770 569 728 569 596 c 3
 569 512 486 456 392 406 c 1
 433 360 471 319 525 263 c 1
 551 310 575 361 598 411 c 1
 707 357 l 1
 678 293 649 232 613 172 c 1
 656 125 673 107 685 107 c 3
 702 107 713 130 732 174 c 1
 836 115 l 1
 791 12 743 -7 702 -7 c 3
 657 -7 609 18 540 77 c 1
 486 27 415 -7 309 -7 c 3
 199 -7 41 51 41 209 c 3xe8
292 330 m 2
 277 345 l 1
 221 312 178 270 178 209 c 3xe8
 178 136 273 107 309 107 c 3
 370 107 415 129 452 162 c 1
 395 219 340 277 292 330 c 2
432 596 m 3
 432 657 385 675 342 675 c 3
 298 675 249 657 249 596 c 3xd8
 249 567 276 532 318 485 c 1
 380 517 432 551 432 596 c 3
EndSplineSet
Validated: 1
EndChar

StartChar: grave
Encoding: 96 96 68
Width: 348
Flags: MW
LayerCount: 2
Back
Fore
SplineSet
38 756 m 1
 172 756 l 1
 303 610 l 1
 204 610 l 1
 38 756 l 1
EndSplineSet
Validated: 1
EndChar

StartChar: dollar
Encoding: 36 36 69
Width: 623
Flags: W
VStem: 61 139<510.062 635.047> 250 122<-64 -8.13336 108 314 488 659 777.244 839> 442 139<143.355 276.72>
LayerCount: 2
Back
Fore
SplineSet
250 -64 m 1
 250 -10 l 1
 158 9 87 57 30 148 c 1
 128 235 l 1
 169 168 212 125 250 108 c 1
 250 355 l 1
 146 392 61 440 61 564 c 3
 61 718 169 768 250 781 c 1
 250 839 l 1
 372 839 l 1
 372 779 l 1
 441 765 490 732 538 675 c 1
 446 596 l 1
 417 626 392 649 372 659 c 1
 372 444 l 1
 480 406 581 349 581 213 c 3
 581 79 488 6 372 -12 c 1
 372 -64 l 1
 250 -64 l 1
442 213 m 3
 442 265 412 294 372 314 c 1
 372 105 l 1
 411 121 442 158 442 213 c 3
200 563 m 3
 200 528 220 505 250 488 c 1
 250 660 l 1
 226 647 200 618 200 563 c 3
EndSplineSet
Validated: 1
EndChar

StartChar: braceright
Encoding: 125 125 70
Width: 473
Flags: W
HStem: -265 117<113.232 251> 233 84<342.374 418> 710 117<113.232 251>
VStem: 189 137<-144.494 181 334.232 709.311>
LayerCount: 2
Back
Fore
SplineSet
195 827 m 3
 307 827 326 719 326 664 c 2
 326 368 l 2
 326 366 327 317 418 317 c 1
 418 233 l 1
 326 233 326 181 326 181 c 1
 326 -103 l 2
 326 -157 307 -265 195 -265 c 3
 119 -265 53 -222 53 -222 c 1
 96 -113 l 1
 96 -113 134 -148 161 -148 c 3
 176 -148 189 -137 189 -103 c 2
 189 182 l 2
 189 208 199 259 260 276 c 1
 199 293 189 364 189 367 c 2
 189 664 l 2
 189 699 177 710 161 710 c 3
 134 710 96 675 96 675 c 1
 53 783 l 1
 53 783 119 827 195 827 c 3
EndSplineSet
Validated: 1
EndChar

StartChar: bar
Encoding: 124 124 71
Width: 249
Flags: W
VStem: 57 130<-248 827>
LayerCount: 2
Back
Fore
SplineSet
187 -248 m 1
 57 -248 l 1
 57 827 l 1
 187 827 l 1
 187 -248 l 1
EndSplineSet
Validated: 1
EndChar

StartChar: at
Encoding: 64 64 72
Width: 1065
Flags: W
HStem: -188 113<419.178 686.304> 18 99<400.094 487.711> 490 98<498.08 602.034> 658 112<433.579 662.61>
VStem: 38 134<151.555 386.669> 258 134<119.497 342.363> 869 134<236.434 456.807>
LayerCount: 2
Back
SplineSet
416 18 m 0
 304 19 258 98 258 214 c 0
 258 435 433 588 550 588 c 0
 615 588 657 557 667 527 c 1
 671 541 676 561 676 561 c 1
 790 525 l 1
 790 525 710 114 710 110 c 1
 746 118 877 183 869 349 c 1
 869 495 752 658 542 658 c 0
 347 658 172 467 172 267 c 0
 172 68 347 -75 542 -75 c 0
 632 -75 702 -71 823 35 c 1
 898 -59 l 1
 749 -187 666 -188 542 -188 c 0
 275 -188 38 5 38 267 c 0
 38 528 275 770 542 770 c 0
 838 770 1003 553 1003 350 c 0
 1003 75 744 18 666 18 c 0
 612 18 585 37 578 71 c 1
 532 40 478 18 416 18 c 0
392 214 m 0
 392 152 400 118 418 117 c 0
 497 115 580 214 606 251 c 1
 617 299 630 355 641 404 c 1
 608 483 579 490 550 490 c 0
 486 490 392 379 392 214 c 0
EndSplineSet
Fore
SplineSet
416 18 m 3
 304 18 258 98 258 214 c 3
 258 435 433 588 550 588 c 3
 615 588 657 557 667 527 c 1
 667 527 676 561 676 561 c 1
 790 525 l 1
 790 525 710 114 710 110 c 1
 745 118 869 168 869 349 c 3
 869 495 752 658 542 658 c 3
 347 658 172 467 172 267 c 3
 172 68 347 -75 542 -75 c 3
 632 -75 702 -71 823 35 c 1
 898 -59 l 1
 749 -187 666 -188 542 -188 c 3
 275 -188 38 5 38 267 c 3
 38 528 275 770 542 770 c 3
 838 770 1003 553 1003 350 c 3
 1003 75 744 18 666 18 c 3
 612 18 585 37 578 71 c 1
 532 40 478 18 416 18 c 3
392 214 m 3
 392 152 400 117 418 117 c 3
 497 117 580 214 606 251 c 1
 606 251 641 404 641 404 c 1
 608 483 579 490 550 490 c 3
 486 490 392 379 392 214 c 3
EndSplineSet
Validated: 1
EndChar

StartChar: slash
Encoding: 47 47 73
Width: 357
Flags: W
HStem: 0 21G<-9 134>
DStem2: -9 0 128 0 0.287348 0.957826<39.3667 803.904>
LayerCount: 2
Back
Fore
SplineSet
222 770 m 1
 359 770 l 1
 128 0 l 1
 -9 0 l 1
 222 770 l 1
EndSplineSet
Validated: 1
EndChar

StartChar: exclam
Encoding: 33 33 74
Width: 297
Flags: W
HStem: -7 155<84.8819 206.916>
VStem: 58 175<19.58 121.99> 69 152<482.538 818> 82 126<195 530.462>
LayerCount: 2
Back
Fore
SplineSet
208 195 m 1x90
 82 195 l 1x90
 69 818 l 1
 221 818 l 1xa0
 208 195 l 1x90
58 71 m 3xc0
 58 115 96 148 147 148 c 3
 196 148 233 115 233 71 c 3
 233 27 196 -7 147 -7 c 3
 96 -7 58 27 58 71 c 3xc0
EndSplineSet
Validated: 1
EndChar

StartChar: parenleft
Encoding: 40 40 75
Width: 341
Flags: W
VStem: 35 137<82.641 438.034>
LayerCount: 2
Back
Fore
SplineSet
321 773 m 1
 329 675 l 1
 202 630 172 375 172 260 c 3
 172 146 202 -110 329 -153 c 1
 321 -252 l 1
 94 -228 35 117 35 260 c 3
 35 402 95 754 321 773 c 1
EndSplineSet
Validated: 1
EndChar

StartChar: backslash
Encoding: 92 92 76
Width: 367
Flags: W
HStem: 0 21G<220.026 364>
DStem2: 133 770 -4 770 0.287348 -0.957826<0 764.25>
LayerCount: 2
Back
Fore
SplineSet
-4 770 m 1
 133 770 l 1
 364 0 l 1
 226 0 l 1
 -4 770 l 1
EndSplineSet
Validated: 1
EndChar

StartChar: parenright
Encoding: 41 41 77
Width: 341
Flags: W
VStem: 162 137<82.641 438.034>
LayerCount: 2
Back
Fore
SplineSet
5 675 m 1
 13 773 l 1
 239 754 299 402 299 260 c 3
 299 117 240 -228 13 -252 c 1
 5 -153 l 1
 132 -110 162 146 162 260 c 3
 162 375 132 630 5 675 c 1
EndSplineSet
Validated: 1
EndChar

StartChar: quotedbl
Encoding: 34 34 78
Width: 381
Flags: W
HStem: 493 276
VStem: 1 168<649.5 742.847> 204 168<649.5 742.847>
LayerCount: 2
Back
Fore
SplineSet
204 699 m 3
 204 740 239 769 286 769 c 3
 347 769 372 727 372 673 c 3
 372 618 339 558 287 493 c 1
 209 540 l 1
 237 574 249 599 258 632 c 1
 223 641 204 666 204 699 c 3
1 699 m 3
 1 740 36 769 83 769 c 3
 144 769 169 727 169 673 c 3
 169 618 136 558 84 493 c 1
 6 540 l 1
 34 574 46 599 55 632 c 1
 20 641 1 666 1 699 c 3
EndSplineSet
Validated: 1
EndChar

StartChar: quotedblleft
Encoding: 8220 8220 79
Width: 381
Flags: W
HStem: 512 276
VStem: 1 168<539.112 631.188> 204 168<538.153 631.188>
LayerCount: 2
Back
Fore
SplineSet
169 582 m 3
 169 541 134 512 88 512 c 3
 27 512 1 554 1 608 c 3
 1 662 34 723 87 788 c 1
 164 741 l 1
 137 707 124 681 115 649 c 1
 150 639 169 615 169 582 c 3
372 582 m 3
 372 541 337 512 290 512 c 3
 229 512 204 554 204 608 c 3
 204 662 237 723 290 788 c 1
 367 741 l 1
 340 707 327 681 318 649 c 1
 353 639 372 615 372 582 c 3
EndSplineSet
Validated: 1
EndChar

StartChar: quotedblright
Encoding: 8221 8221 80
Width: 381
Flags: W
HStem: 493 276
VStem: 1 168<649.5 742.847> 204 168<649.5 742.847>
LayerCount: 2
Back
Fore
SplineSet
204 699 m 3
 204 740 239 769 286 769 c 3
 347 769 372 727 372 673 c 3
 372 618 339 558 287 493 c 1
 209 540 l 1
 237 574 249 599 258 632 c 1
 223 641 204 666 204 699 c 3
1 699 m 3
 1 740 36 769 83 769 c 3
 144 769 169 727 169 673 c 3
 169 618 136 558 84 493 c 1
 6 540 l 1
 34 574 46 599 55 632 c 1
 20 641 1 666 1 699 c 3
EndSplineSet
Validated: 1
EndChar

StartChar: asciitilde
Encoding: 126 126 81
Width: 655
Flags: W
HStem: 284 102<296.743 503.489> 316 103<138.267 339.449>
LayerCount: 2
Back
SplineSet
91 262 m 1x80
 30 352 l 1
 30 352 86 406 193 418 c 0
 232 422 279 413 326 400 c 1x40
 324 401 l 1
 359 394 410 385 439 386 c 0
 500 395 558 438 558 438 c 1
 599 346 l 1
 599 346 536 294 453 285 c 0
 407 280 354 291 303 303 c 0
 270 312 233 318 207 316 c 0
 140 307 91 262 91 262 c 1x80
EndSplineSet
Fore
SplineSet
91 262 m 1x40
 30 352 l 1
 30 352 105 419 213 419 c 0x40
 250 419 281 412 324 401 c 16
 367 390 403 386 434 386 c 0
 479 386 558 438 558 438 c 1
 599 346 l 1
 599 346 514 284 451 284 c 0x80
 388 284 345 292 303 303 c 0
 274 310 243 316 218 316 c 0
 149 316 91 262 91 262 c 1x40
EndSplineSet
Validated: 1
EndChar

StartChar: quotesingle
Encoding: 39 39 82
Width: 210
Flags: W
HStem: 494 276
VStem: 19 168<650.5 743.591>
LayerCount: 2
Back
Fore
SplineSet
19 699 m 3
 19 740 54 770 101 770 c 3
 162 770 187 728 187 674 c 3
 187 619 154 559 102 494 c 1
 24 541 l 1
 52 575 64 600 73 633 c 1
 38 642 19 667 19 699 c 3
EndSplineSet
Validated: 1
EndChar

StartChar: plus
Encoding: 43 43 83
Width: 653
Flags: MW
HStem: 231 100<29 254 375 610>
VStem: 254 121<0 231 331 560>
LayerCount: 2
Back
Fore
SplineSet
375 0 m 1
 254 0 l 1
 254 231 l 1
 29 231 l 1
 29 331 l 1
 254 331 l 1
 254 560 l 1
 375 560 l 1
 375 331 l 1
 610 331 l 1
 610 231 l 1
 375 231 l 1
 375 0 l 1
EndSplineSet
Validated: 1
EndChar

StartChar: bracketright
Encoding: 93 93 84
Width: 362
Flags: MW
HStem: -248 94<44 159> 677 93<44 159>
VStem: 159 137<-154 677>
LayerCount: 2
Back
Fore
SplineSet
44 -248 m 1
 44 -154 l 1
 159 -154 l 1
 159 677 l 1
 44 677 l 1
 44 770 l 1
 296 770 l 1
 296 -248 l 1
 44 -248 l 1
EndSplineSet
Validated: 1
EndChar

StartChar: percent
Encoding: 37 37 85
Width: 1006
Flags: W
HStem: -14 99<715.253 809.541> 322 99<714.524 808.905> 343 99<175.22 269.187> 679 100<174.491 268.545>
VStem: 12 139<466.309 655.83> 293 138<465.301 655.039> 553 138<109.108 298.769> 833 138<108.101 298.811>
DStem2: 124 -45 278 -45 0.558492 0.82951<86.0077 1033.14>
LayerCount: 2
Back
Fore
SplineSet
12 561 m 3xbf
 12 729 125 778 221 779 c 3
 319 779 431 731 431 559 c 3
 431 391 318 343 222 343 c 3
 126 343 12 392 12 561 c 3xbf
701 812 m 1
 854 812 l 1
 278 -45 l 1
 124 -45 l 1
 701 812 l 1
221 679 m 3
 185 679 151 659 151 561 c 3
 151 462 186 442 222 442 c 3
 258 442 292 461 293 559 c 3
 293 660 258 679 221 679 c 3
553 204 m 3
 553 372 665 420 761 421 c 3xdf
 860 421 971 374 971 202 c 3
 971 33 859 -14 762 -14 c 3
 666 -14 553 34 553 204 c 3
761 322 m 3
 725 322 691 302 691 204 c 3
 691 105 726 85 762 85 c 3
 799 85 832 104 833 202 c 3
 833 303 799 322 761 322 c 3
EndSplineSet
Validated: 1
EndChar

StartChar: equal
Encoding: 61 61 86
Width: 664
Flags: W
HStem: 160 100<34 616> 313 100<34 616>
LayerCount: 2
Back
Fore
SplineSet
616 413 m 1
 616 313 l 1
 34 313 l 1
 34 413 l 1
 616 413 l 1
616 260 m 1
 616 160 l 1
 34 160 l 1
 34 260 l 1
 616 260 l 1
EndSplineSet
Validated: 1
EndChar

StartChar: bracketleft
Encoding: 91 91 87
Width: 362
Flags: MW
HStem: -248 94<196 310> 677 93<196 310>
VStem: 59 137<-154 677>
LayerCount: 2
Back
Fore
SplineSet
310 770 m 1
 310 677 l 1
 196 677 l 1
 196 -154 l 1
 310 -154 l 1
 310 -248 l 1
 59 -248 l 1
 59 770 l 1
 310 770 l 1
EndSplineSet
Validated: 1
EndChar

StartChar: numbersign
Encoding: 35 35 88
Width: 828
Flags: W
HStem: 0 21G<118 245 357 483> 228 105<41 174 326 412 564 716> 465 105<94 232 384 470 623 768>
DStem2: 118 0 245 0 0.238379 0.971172<30.2741 234.776 372.983 478.77 616.977 792.856> 357 0 483 0 0.238379 0.971172<30.0357 234.538 372.745 478.532 616.977 792.618>
LayerCount: 2
Back
Fore
SplineSet
70 465 m 1
 94 570 l 1
 257 570 l 1
 257 570 307 770 307 770 c 1
 434 770 l 1
 384 570 l 1
 495 570 l 1
 495 570 545 770 545 770 c 1
 672 770 l 1
 623 570 l 1
 792 570 l 1
 768 465 l 1
 598 465 l 1
 598 465 564 333 564 333 c 1
 740 333 l 1
 716 228 l 1
 540 228 l 1
 540 228 483 0 483 0 c 1
 357 0 l 1
 412 228 l 1
 301 228 l 1
 301 228 245 0 245 0 c 1
 118 0 l 1
 174 228 l 1
 17 228 l 1
 41 333 l 1
 198 333 l 1
 198 333 232 465 232 465 c 1
 70 465 l 1
360 465 m 1
 326 333 l 1
 437 333 l 1
 437 333 470 465 470 465 c 1
 360 465 l 1
EndSplineSet
Validated: 1
EndChar

StartChar: less
Encoding: 60 60 89
Width: 703
Flags: W
DStem2: 53 328 205 285 0.911164 0.412045<120.779 596.985> 205 285 53 242 0.911164 -0.412045<0 476.206>
LayerCount: 2
Back
Fore
SplineSet
53 242 m 1
 53 328 l 1
 639 593 l 1
 639 481 l 1
 205 285 l 1
 205 285 639 89 639 89 c 1
 639 -23 l 1
 53 242 l 1
EndSplineSet
Validated: 1
EndChar

StartChar: greater
Encoding: 62 62 90
Width: 703
Flags: W
DStem2: 48 593 48 481 0.911164 -0.412045<46.149 522.355> 48 89 48 -23 0.911164 0.412045<0 476.206>
LayerCount: 2
Back
Fore
SplineSet
634 242 m 1
 48 -23 l 1
 48 89 l 1
 482 285 l 1
 48 481 l 1
 48 593 l 1
 634 328 l 1
 634 242 l 1
EndSplineSet
Validated: 1
EndChar

StartChar: asterisk
Encoding: 42 42 91
Width: 621
Flags: W
VStem: 244 120<577 770>
DStem2: 62 649 24 550 0.93182 -0.36292<0.519858 196.084> 81 327 177 250 0.628913 0.777475<0.510064 199.489> 364 577 392 475 0.931457 0.363851<0 195.097>
LayerCount: 2
Back
Fore
SplineSet
24 550 m 1
 62 649 l 1
 244 576 l 1
 244 576 242 770 242 770 c 1
 366 770 l 1
 364 577 l 1
 546 649 l 1
 584 550 l 1
 392 475 l 1
 525 328 l 1
 431 249 l 1
 304 407 l 1
 177 250 l 1
 81 327 l 1
 214 476 l 1
 24 550 l 1
EndSplineSet
Validated: 1
EndChar

StartChar: emdash
Encoding: 8212 8212 92
Width: 794
Flags: W
HStem: 232 98<35 741>
LayerCount: 2
Back
Fore
SplineSet
741 330 m 1
 741 232 l 1
 35 232 l 1
 35 330 l 1
 741 330 l 1
EndSplineSet
Validated: 1
EndChar

StartChar: minus
Encoding: 8722 8722 93
Width: 663
Flags: W
HStem: 231 100<34 615>
LayerCount: 2
Back
Fore
SplineSet
615 331 m 1
 615 231 l 1
 34 231 l 1
 34 331 l 1
 615 331 l 1
EndSplineSet
Validated: 1
EndChar

StartChar: a
Encoding: 97 97 94
Width: 567
Flags: W
HStem: -11 101<176.304 286.141> 453 108<232.675 344.345>
VStem: 35 133<96.9427 199.749> 350 134<141.713 245 344.249 451.351>
LayerCount: 2
Back
SplineSet
107 372 m 1
 71 430 50 469 50 469 c 1
 85 489 216 561 332 561 c 0
 463 561 484 450 484 396 c 2
 484 119 l 2
 484 116 483 85 544 57 c 1
 462 -17 l 1
 414 2 386 24 372 46 c 1
 328 12 270 -11 208 -11 c 0
 184 -11 35 0 35 147 c 0
 35 220 66 307 245 333 c 0
 313 342 328 343 350 349 c 1
 350 396 l 2
 350 411 347 453 320 453 c 0
 260 453 158 399 107 372 c 1
207 90 m 0
 257 86 315 123 350 163 c 1
 350 245 l 1
 335 242 315 240 293 237 c 2
 261 232 l 2
 186 218 168 181 168 147 c 0
 168 97 199 91 207 90 c 0
EndSplineSet
Fore
SplineSet
107 372 m 1
 71 430 50 469 50 469 c 1
 85 489 216 561 332 561 c 3
 463 561 484 450 484 396 c 2
 484 119 l 2
 484 104 500 75 544 57 c 1
 462 -17 l 1
 414 2 386 24 372 46 c 1
 328 12 270 -11 208 -11 c 3
 184 -11 35 0 35 147 c 3
 35 220 66 307 245 333 c 0
 313 342 328 343 350 349 c 1
 350 396 l 2
 350 411 347 453 320 453 c 3
 260 453 158 399 107 372 c 1
207 90 m 3
 259 90 312 119 350 163 c 1
 350 245 l 1
 335 242 315 240 293 237 c 2
 261 232 l 2
 186 218 168 181 168 147 c 3
 168 97 199 90 207 90 c 3
EndSplineSet
Validated: 1
EndChar

StartChar: b
Encoding: 98 98 95
Width: 629
Flags: MW
HStem: -11 109<251.492 386.336> 449 112<260.557 393.626>
VStem: 64 134<0 53 139.501 394.354 521 820> 440 135<164.408 389.985>
LayerCount: 2
Back
Fore
SplineSet
344 561 m 3
 503 561 575 428 575 283 c 3
 575 97 482 -11 331 -11 c 3
 265 -11 203 38 198 53 c 1
 198 0 l 1
 64 0 l 1
 64 820 l 1
 198 820 l 1
 198 521 l 1
 234 546 279 561 344 561 c 3
344 449 m 3
 271 449 226 409 198 368 c 1
 198 158 l 1
 239 119 291 98 331 98 c 3
 397 98 440 168 440 283 c 3
 440 369 407 449 344 449 c 3
EndSplineSet
Validated: 1
EndChar

StartChar: c
Encoding: 99 99 96
Width: 513
Flags: W
HStem: -11 105<223.032 338.964> 456 105<229.292 332.569>
VStem: 34 135<161.502 379.632>
LayerCount: 2
Back
Fore
SplineSet
283 561 m 3
 406 561 472 458 472 458 c 1
 384 375 l 1
 384 375 341 456 281 456 c 3
 229 456 169 394 169 266 c 3
 169 172 211 94 276 94 c 3
 304 94 333 101 402 166 c 1
 483 89 l 1
 392 -5 331 -11 276 -11 c 3
 130 -11 34 109 34 266 c 3
 34 471 170 561 283 561 c 3
EndSplineSet
Validated: 1
EndChar

StartChar: quoteleft
Encoding: 8216 8216 97
Width: 210
Flags: W
HStem: 512 276
VStem: 19 168<539.112 631.188>
LayerCount: 2
Back
Fore
SplineSet
187 582 m 3
 187 541 152 512 106 512 c 3
 45 512 19 554 19 608 c 3
 19 662 52 723 105 788 c 1
 182 741 l 1
 155 707 142 681 133 649 c 1
 168 639 187 615 187 582 c 3
EndSplineSet
Validated: 1
EndChar

StartChar: quoteright
Encoding: 8217 8217 98
Width: 210
Flags: W
HStem: 493 276
VStem: 19 168<649.5 742.847>
LayerCount: 2
Back
Fore
SplineSet
19 699 m 3
 19 740 54 769 101 769 c 3
 162 769 187 727 187 673 c 3
 187 618 154 558 102 493 c 1
 24 540 l 1
 52 574 64 599 73 632 c 1
 38 641 19 666 19 699 c 3
EndSplineSet
Validated: 1
EndChar

StartChar: dieresis
Encoding: 168 168 99
Width: 437
Flags: W
HStem: 617 135<65.5113 170.695 257.408 362.745>
VStem: 50 136<633.095 735.998> 242 135<633.095 735.998>
LayerCount: 2
Back
Fore
SplineSet
50 685 m 3
 50 723 74 752 119 752 c 3
 162 752 186 723 186 685 c 3
 186 646 162 617 119 617 c 3
 74 617 50 646 50 685 c 3
242 685 m 3
 242 723 266 752 310 752 c 3
 356 752 377 723 377 685 c 3
 377 646 356 617 310 617 c 3
 266 617 242 646 242 685 c 3
EndSplineSet
Validated: 1
EndChar

StartChar: acute
Encoding: 180 180 100
Width: 323
Flags: MW
LayerCount: 2
Back
Fore
SplineSet
188 756 m 1
 322 756 l 1
 156 610 l 1
 57 610 l 1
 188 756 l 1
EndSplineSet
Validated: 1
EndChar

StartChar: circumflex
Encoding: 710 710 101
Width: 501
Flags: W
HStem: 613 146
DStem2: 42 613 167 613 0.732295 0.680988<91.5369 201.092>
LayerCount: 2
Back
Fore
SplineSet
291 759 m 1
 448 613 l 1
 323 613 l 1
 245 690 l 1
 167 613 l 1
 42 613 l 1
 199 759 l 1
 199 759 291 759 291 759 c 1
EndSplineSet
Validated: 1
EndChar

StartChar: trademark
Encoding: 8482 8482 102
Width: 880
Flags: MW
HStem: 660 91<36 153 278 395>
VStem: 153 125<373 660> 407 123<373 470> 715 125<373 467>
LayerCount: 2
Back
Fore
SplineSet
530 373 m 1
 407 373 l 1
 407 751 l 1
 521 751 l 1
 625 524 l 1
 726 751 l 1
 840 751 l 1
 840 373 l 1
 715 373 l 1
 715 467 l 1
 677 373 l 1
 570 373 l 1
 530 470 l 1
 530 373 l 1
36 660 m 1
 36 751 l 1
 395 751 l 1
 395 660 l 1
 278 660 l 1
 278 373 l 1
 153 373 l 1
 153 660 l 1
 36 660 l 1
EndSplineSet
Validated: 1
EndChar

StartChar: ellipsis
Encoding: 8230 8230 103
Width: 619
Flags: W
HStem: -7 155<50.7448 172.779 241.882 363.916 433.745 555.779>
VStem: 24 175<19.58 121.99> 215 175<19.58 121.99> 407 175<19.58 121.99>
LayerCount: 2
Back
Fore
SplineSet
24 71 m 3
 24 115 62 148 112 148 c 3
 162 148 199 115 199 71 c 3
 199 27 162 -7 112 -7 c 3
 62 -7 24 27 24 71 c 3
215 71 m 3
 215 115 253 148 304 148 c 3
 353 148 390 115 390 71 c 3
 390 27 353 -7 304 -7 c 3
 253 -7 215 27 215 71 c 3
407 71 m 3
 407 115 445 148 495 148 c 3
 545 148 582 115 582 71 c 3
 582 27 545 -7 495 -7 c 3
 445 -7 407 27 407 71 c 3
EndSplineSet
Validated: 1
EndChar

StartChar: fi
Encoding: 64257 64257 104
Width: 585
Flags: MW
HStem: 449 101<13 80 214 370> 706 101<224.633 326.51>
VStem: 80 134<0 449 550 696.047> 370 134<0 449>
LayerCount: 2
Back
Fore
SplineSet
214 622 m 2
 214 550 l 1
 504 550 l 1
 504 0 l 1
 370 0 l 1
 370 449 l 1
 214 449 l 1
 214 0 l 1
 80 0 l 1
 80 449 l 1
 13 449 l 1
 13 550 l 1
 80 550 l 1
 80 622 l 2
 80 729 132 807 259 807 c 3
 368 807 497 707 497 707 c 1
 420 630 l 1
 420 630 311 706 260 706 c 3
 221 706 215 669 214 622 c 2
EndSplineSet
Validated: 1
Ligature2: "'liga' Standard Ligatures in Latin lookup 2 subtable" f i
EndChar

StartChar: tilde
Encoding: 732 732 105
Width: 542
Flags: W
HStem: 586 98<270.774 397.313> 631 98<132.362 262.932>
LayerCount: 2
Back
SplineSet
442 751 m 1x80
 491 654 l 1
 491 654 440 591 359 586 c 0x80
 294 581 245 631 177 631 c 0
 138 629 87 566 87 566 c 1
 40 661 l 1
 40 661 90 724 171 729 c 0x40
 238 734 293 684 353 684 c 0
 392 686 442 751 442 751 c 1x80
EndSplineSet
Fore
SplineSet
442 751 m 1x80
 491 654 l 1
 491 654 433 586 350 586 c 3x80
 289 586 242 631 177 631 c 3
 139 631 87 566 87 566 c 1
 40 661 l 1
 40 661 97 729 180 729 c 3x40
 243 729 296 684 353 684 c 3
 390 684 442 751 442 751 c 1x80
EndSplineSet
Validated: 1
EndChar

StartChar: bullet
Encoding: 8226 8226 106
Width: 343
Flags: W
HStem: 115 256<90.5469 247.309>
VStem: 30 276<173.957 313.98>
LayerCount: 2
Back
Fore
SplineSet
30 245 m 3
 30 317 90 371 170 371 c 3
 248 371 306 317 306 245 c 3
 306 171 248 115 170 115 c 3
 90 115 30 171 30 245 c 3
EndSplineSet
Validated: 1
EndChar

StartChar: copyright
Encoding: 169 169 107
Width: 884
Flags: W
HStem: 0 91<331.169 534.117> 166 96<393.733 480.691> 506 98<397.109 471.224> 679 92<331.169 534.117>
VStem: 36 113<278.617 491.805> 241 125<292.148 473.067> 716 112<278.617 491.805>
LayerCount: 2
Back
Fore
SplineSet
36 385 m 3
 36 599 213 771 433 771 c 3
 652 771 828 599 828 385 c 3
 828 172 652 0 433 0 c 3
 213 0 36 172 36 385 c 3
435 604 m 3
 535 604 588 518 588 518 c 1
 506 441 l 1
 506 441 469 506 434 506 c 3
 403 506 366 466 366 377 c 3
 366 316 393 262 431 262 c 3
 449 262 468 268 523 321 c 1
 596 249 l 1
 521 172 475 166 431 166 c 3
 317 166 241 257 241 377 c 3
 241 534 350 604 435 604 c 3
149 385 m 3
 149 224 276 91 433 91 c 3
 588 91 716 224 716 385 c 3
 716 547 588 679 433 679 c 3
 276 679 149 547 149 385 c 3
EndSplineSet
Validated: 1
EndChar

StartChar: registered
Encoding: 174 174 108
Width: 884
Flags: W
HStem: 0 91<331.169 534.812> 520 82<379.75 470.209> 679 92<331.169 534.117>
VStem: 36 113<278.617 491.805> 263 116<170 329 413 516.005> 475 115<421.917 516.011> 716 112<277.054 491.805>
LayerCount: 2
Back
SplineSet
379 508 m 1
 379 413 l 1
 427 413 l 2
 447 413 474 424 475 475 c 0
 475 506 457 519 440 519 c 0
 418 521 398 517 379 508 c 1
EndSplineSet
Fore
SplineSet
149 385 m 3
 149 224 276 91 433 91 c 3
 507 91 574 121 625 170 c 1
 531 170 l 1
 497 193 476 222 457 248 c 1
 458 248 l 1
 434 281 401 317 379 329 c 1
 379 170 l 1
 263 170 l 1
 263 602 l 1
 376 602 l 1
 397 607 418 608 442 608 c 3
 507 608 590 572 590 475 c 3
 590 404 556 367 513 347 c 1
 528 330 546 308 557 292 c 0
 577 267 602 236 650 197 c 1
 691 248 716 314 716 385 c 3
 716 547 588 679 433 679 c 3
 276 679 149 547 149 385 c 3
36 385 m 3
 36 599 213 771 433 771 c 3
 652 771 828 599 828 385 c 3
 828 172 652 0 433 0 c 3
 213 0 36 172 36 385 c 3
379 508 m 1
 379 413 l 1
 427 413 l 2
 447 413 474 424 475 475 c 3
 475 512 454 520 429 520 c 3
 411 520 395 515 379 508 c 1
EndSplineSet
Validated: 1
EndChar

StartChar: cent
Encoding: 162 162 109
Width: 513
Flags: W
HStem: -11 106<271.258 342.86>
VStem: 32 137<187.691 385.628>
DStem2: 112 -86 225 -86 0.252897 0.967493<28.5774 111.785 279.893 561.26 677.018 771.065>
LayerCount: 2
Back
Fore
SplineSet
307 660 m 1
 420 660 l 1
 389 547 l 1
 446 517 478 467 478 467 c 1
 393 411 l 1
 393 411 380 425 360 430 c 1
 360 430 271 95 271 95 c 1
 279 95 l 2
 307 95 337 103 407 170 c 1
 490 91 l 1
 397 -5 335 -11 279 -11 c 3
 267 -11 256 -11 245 -10 c 1
 225 -86 l 1
 112 -86 l 1
 143 30 l 1
 73 81 32 170 32 271 c 3
 32 479 169 571 284 572 c 1
 307 660 l 1
169 271 m 3
 169 240 174 210 182 185 c 1
 254 457 l 1
 210 438 169 377 169 271 c 3
EndSplineSet
Validated: 1
EndChar

StartChar: caron
Encoding: 711 711 110
Width: 501
Flags: W
HStem: 605 146
DStem2: 245 674 291 605 0.734447 0.678666<0 109.544>
LayerCount: 2
Back
Fore
SplineSet
291 605 m 1
 199 605 l 1
 42 751 l 1
 167 751 l 1
 245 674 l 1
 323 751 l 1
 449 751 l 1
 291 605 l 1
EndSplineSet
Validated: 1
EndChar

StartChar: dotlessi
Encoding: 305 305 112
Width: 256
Flags: MW
VStem: 58 133<0 550>
LayerCount: 2
Back
Fore
SplineSet
58 550 m 1
 191 550 l 1
 191 0 l 1
 58 0 l 1
 58 550 l 1
EndSplineSet
Validated: 1
EndChar

StartChar: germandbls
Encoding: 223 223 114
Width: 655
Flags: W
HStem: 0 112<257.704 421.795> 370 102<254 344.046> 449 101<5 71> 702 107<235.937 369.893>
VStem: 71 133<0 449 550 672.557> 408 135<531.891 664.623> 469 135<156.019 315.435>
LayerCount: 2
Back
Fore
SplineSet
254 370 m 1xda
 254 472 l 1xda
 320 475 408 498 408 610 c 3
 408 681 336 702 306 702 c 3
 255 702 209 680 204 621 c 1
 204 0 l 1
 71 0 l 1
 71 449 l 1
 5 449 l 1
 5 550 l 1
 71 550 l 1
 71 622 l 2
 71 753 180 809 306 809 c 3
 392 809 543 768 543 608 c 3xbc
 543 536 517 482 480 445 c 1
 549 414 604 352 604 248 c 3
 604 136 577 0 339 0 c 3
 318 0 291 1 256 13 c 1
 256 125 l 1
 294 115 321 112 338 112 c 3
 453 112 469 176 469 248 c 3
 469 358 357 370 254 370 c 1xda
EndSplineSet
Validated: 1
EndChar

StartChar: ring
Encoding: 730 730 115
Width: 321
Flags: W
HStem: 595 69<144.923 175.437> 716 73<144.741 175.596>
VStem: 52 92<664.828 714.86> 176 90<664.828 714.86>
LayerCount: 2
Back
Fore
SplineSet
144 692 m 3
 144 676 152 664 161 664 c 3
 169 664 176 676 176 692 c 3
 176 704 169 716 161 716 c 3
 152 716 144 704 144 692 c 3
52 692 m 3
 52 745 100 789 159 789 c 3
 218 789 266 745 266 692 c 3
 266 639 218 595 159 595 c 3
 100 595 52 639 52 692 c 3
EndSplineSet
Validated: 1
EndChar

StartChar: hungarumlaut
Encoding: 733 733 116
Width: 496
Flags: W
HStem: 581 176
DStem2: 16 581 144 581 0.674965 0.73785<86.3955 236.506> 157 581 286 581 0.750714 0.660628<96.842 264.161>
LayerCount: 2
Back
SplineSet
174 757 m 1
 344 757 l 1
 144 581 l 1
 16 581 l 1
 174 757 l 1
305 757 m 1
 476 757 l 1
 276 581 l 1
 148 581 l 1
 305 757 l 1
EndSplineSet
Fore
SplineSet
16 581 m 25
 174 757 l 1
 305 757 l 25
 144 581 l 1
 16 581 l 25
157 581 m 25
 354 757 l 1
 486 757 l 25
 286 581 l 1
 157 581 l 25
EndSplineSet
Validated: 1
EndChar

StartChar: breve
Encoding: 728 728 117
Width: 438
Flags: W
HStem: 603 77<180.112 270.156>
VStem: 53 106<703.318 751> 291 105<703.179 751>
LayerCount: 2
Back
Fore
SplineSet
53 751 m 1
 159 751 l 1
 163 710 192 680 228 680 c 3
 258 680 286 710 291 751 c 1
 396 751 l 1
 385 659 324 603 228 603 c 3
 128 603 66 649 53 751 c 1
EndSplineSet
Validated: 1
EndChar

StartChar: AE
Encoding: 198 198 118
Width: 983
Flags: W
HStem: 0 109<605 937.95> 250 108<348 464> 344 109<605 877> 662 108<605 923.95>
VStem: 464 141<109 250 453 564>
DStem2: -2 0 149 0 0.483228 0.875495<72.9674 359.493 482.557 718.963>
LayerCount: 2
Back
Fore
SplineSet
938 0 m 1xb8
 464 0 l 1
 464 250 l 1
 289 250 l 1xd8
 289 250 149 0 149 0 c 1
 -2 0 l 1
 423 770 l 1
 796 770 l 2
 856 770 924 779 924 779 c 1
 924 662 l 1
 605 662 l 1
 605 453 l 1
 877 453 l 1
 877 344 l 1
 605 344 l 1
 605 109 l 1
 809 109 l 2
 869 109 938 117 938 117 c 1
 938 0 l 1xb8
464 564 m 1
 348 358 l 1
 464 358 l 1
 464 564 l 1
EndSplineSet
Validated: 1
EndChar

StartChar: OE
Encoding: 338 338 119
Width: 962
Flags: W
HStem: -14 108<298.666 443.368> 0 109<585 917.95> 344 109<585 857> 662 108<585 904.95> 677 107<300.089 442.854>
VStem: 42 141<240.695 528.652> 444 141<109.074 344 453 661.557>
LayerCount: 2
Back
Fore
SplineSet
918 0 m 1x76
 479 0 l 1x76
 472 -4 412 -14 374 -14 c 3
 220 -14 42 71 42 384 c 3
 42 697 220 784 377 784 c 3xae
 411 784 446 780 479 770 c 1
 776 770 l 2
 836 770 905 779 905 779 c 1
 905 662 l 1
 585 662 l 1
 585 453 l 1
 857 453 l 1
 857 344 l 1
 585 344 l 1
 585 109 l 1
 789 109 l 2
 849 109 918 117 918 117 c 1
 918 0 l 1x76
444 110 m 1
 444 661 l 1
 421 673 399 677 377 677 c 3
 290 677 183 606 183 386 c 3
 183 163 290 94 374 94 c 3xae
 396 94 421 100 444 110 c 1
EndSplineSet
Validated: 1
EndChar

StartChar: fl
Encoding: 64258 64258 120
Width: 622
Flags: MW
HStem: -11 102<518.479 583> 449 101<15 81 215 367> 706 101<223.945 317.125>
VStem: 81 134<0 449 550 700.209> 381 133<105.204 661.852 772 803>
LayerCount: 2
Back
Fore
SplineSet
215 622 m 2
 215 550 l 1
 367 550 l 1
 367 449 l 1
 215 449 l 1
 215 0 l 1
 81 0 l 1
 81 449 l 1
 15 449 l 1
 15 550 l 1
 81 550 l 1
 81 622 l 2
 81 729 126 807 254 807 c 3
 293 807 341 790 381 772 c 1
 381 803 l 1
 514 803 l 1
 514 154 l 2
 514 135 514 109 518 105 c 0
 528 94 552 91 587 91 c 1
 583 -11 l 1
 539 -11 455 -7 422 26 c 0
 381 67 381 118 381 154 c 2
 381 650 l 1
 350 668 284 706 254 706 c 3
 218 706 216 669 215 622 c 2
EndSplineSet
Validated: 1
Ligature2: "'liga' Standard Ligatures in Latin lookup 2 subtable" f l
EndChar

StartChar: dotaccent
Encoding: 729 729 121
Width: 196
Flags: W
HStem: 636 134<38.59 154.513>
VStem: 19 155<656.002 749.611>
LayerCount: 2
Back
Fore
SplineSet
19 703 m 3
 19 741 52 770 97 770 c 3
 141 770 174 741 174 703 c 3
 174 664 141 636 97 636 c 3
 52 636 19 664 19 703 c 3
EndSplineSet
Validated: 1
EndChar

StartChar: ae
Encoding: 230 230 122
Width: 901
Flags: W
HStem: -11 101<181.304 293.133 526.035 657.121> 261 105<489 682> 456 105<216.544 337.171 530.653 643.893>
VStem: 40 133<96.9427 203.268> 343 129<163.265 243>
DStem2: 249 333 266 232 0.9895 0.144534<-74.7116 80.005>
LayerCount: 2
Back
SplineSet
324 561 m 0
 381 561 420 539 442 511 c 1
 479 541 531 561 587 561 c 0
 805 561 823 355 823 315 c 2
 823 261 l 1
 472 261 l 1
 472 160 513 92 591 92 c 0
 613 92 662 89 746 199 c 1
 829 121 l 1
 719 -16 635 -11 591 -11 c 0
 508 -11 445 21 404 67 c 1
 349 16 281 -11 213 -11 c 0
 189 -11 40 0 40 147 c 0
 40 220 71 307 249 333 c 0
 318 342 320 341 343 347 c 1
 343 396 l 2
 343 411 340 453 313 453 c 0
 252 453 151 399 126 385 c 2
 94 369 l 1
 94 369 79 398 74 408 c 0
 63 430 46 463 60 476 c 1
 95 496 209 561 324 561 c 0
212 90 m 0
 262 86 319 122 354 162 c 1
 346 189 344 215 343 243 c 1
 265 232 l 1
 266 232 l 1
 185 219 173 182 173 147 c 0
 173 97 204 91 212 90 c 0
587 458 m 0
 539 458 508 422 489 366 c 1
 682 366 l 1
 671 409 645 458 587 458 c 0
EndSplineSet
Fore
SplineSet
324 561 m 3
 381 561 420 539 442 511 c 1
 479 541 531 561 587 561 c 3
 805 561 823 355 823 315 c 2
 823 261 l 1
 472 261 l 1
 472 160 513 90 591 90 c 3
 630 90 685 115 746 199 c 1
 829 121 l 1
 739 8 663 -11 591 -11 c 3
 508 -11 445 21 404 67 c 1
 349 16 281 -11 213 -11 c 3
 189 -11 40 0 40 147 c 3
 40 220 71 307 249 333 c 0
 318 342 320 341 343 347 c 1
 343 396 l 2
 343 411 340 456 313 456 c 3
 231 456 129 392 94 369 c 1
 94 369 45 467 45 467 c 1
 84 492 209 561 324 561 c 3
212 90 m 3
 281 90 321 128 354 162 c 1
 346 189 344 215 343 243 c 1
 318 239 288 235 266 232 c 0
 185 219 173 182 173 147 c 3
 173 97 204 90 212 90 c 3
587 456 m 3
 539 456 508 422 489 366 c 1
 682 366 l 1
 671 409 645 456 587 456 c 3
EndSplineSet
Validated: 1
EndChar

StartChar: Oslash
Encoding: 216 216 123
Width: 760
Flags: W
HStem: -14 108<298.555 449.976> 677 107<297.395 443.762>
VStem: 40 141<235.023 528.652> 563 141<231.717 535.815>
DStem2: 143 73 222 -33 0.458237 0.88883<-58.0153 -8.89743 152.957 614.642 772.529 820.685>
LayerCount: 2
Back
SplineSet
374 784 m 0
 416 784 457 778 497 762 c 1
 504 776 513 793 518 803 c 1
 653 803 l 1
 597 699 l 1
 659 636 703 536 704 386 c 0
 704 71 536 -14 371 -14 c 0
 327 -14 283 -8 243 8 c 1
 222 -33 l 1
 89 -33 l 1
 142 73 l 1
 80 137 40 233 40 384 c 0
 40 697 218 784 374 784 c 0
563 384 m 0
 563 467 553 519 530 564 c 1
 298 112 l 1
 323 99 349 94 371 94 c 0
 463 94 562 162 563 384 c 0
374 677 m 0
 287 677 181 606 181 386 c 0
 181 315 195 249 212 208 c 1
 290 359 366 506 445 659 c 1
 421 671 396 677 374 677 c 0
EndSplineSet
Fore
SplineSet
374 677 m 3
 287 677 181 606 181 386 c 3
 181 310 193 253 213 209 c 1
 445 660 l 1
 422 672 397 677 374 677 c 3
518 803 m 1
 653 803 l 1
 599 698 l 1
 661 637 704 538 704 386 c 3
 704 71 536 -14 371 -14 c 3
 329 -14 285 -8 243 8 c 1
 222 -33 l 1
 88 -33 l 1
 143 73 l 1
 82 134 40 232 40 384 c 3
 40 697 218 784 374 784 c 3
 415 784 457 778 497 763 c 1
 518 803 l 1
297 113 m 1
 322 100 347 94 371 94 c 3
 463 94 562 162 563 384 c 3
 563 461 550 521 530 565 c 1
 297 113 l 1
EndSplineSet
Validated: 1
EndChar

StartChar: oe
Encoding: 339 339 124
Width: 976
Flags: W
HStem: -11 99<233.697 350.411 603.773 724.903> 261 105<560 754> 461 100<233.697 354.905 606.201 708.241>
VStem: 41 135<158.438 390.243> 410 133<163.143 261>
LayerCount: 2
Back
SplineSet
41 275 m 0xf8
 41 485 166 561 293 561 c 0
 363 561 433 537 480 480 c 1
 522 526 586 561 658 561 c 0
 876 561 894 355 894 315 c 2
 894 261 l 1
 543 261 l 1
 543 160 585 92 662 92 c 0
 685 92 733 89 817 199 c 1
 901 121 l 1
 790 -16 706 -11 662 -11 c 0
 581 -11 518 19 477 65 c 1
 430 10 362 -11 293 -11 c 0
 166 -11 41 59 41 275 c 0xf8
410 281 m 2xf4
 408 409 349 461 293 461 c 0
 236 461 176 412 176 275 c 0
 176 140 236 88 293 88 c 0
 348 88 406 135 410 264 c 1
 410 281 l 2xf4
658 458 m 0
 611 458 580 422 560 366 c 1
 754 366 l 1
 743 409 716 458 658 458 c 0
EndSplineSet
Fore
SplineSet
41 275 m 3
 41 485 166 561 293 561 c 3
 363 561 433 537 480 480 c 1
 522 526 586 561 658 561 c 3
 876 561 894 355 894 315 c 2
 894 261 l 1
 543 261 l 1
 543 160 585 92 662 92 c 3
 719 92 757 124 817 199 c 1
 901 121 l 1
 841 46 780 -11 662 -11 c 3
 581 -11 518 19 477 65 c 1
 430 10 362 -11 293 -11 c 3
 166 -11 41 59 41 275 c 3
410 281 m 3
 410 417 350 461 293 461 c 3
 236 461 176 411 176 275 c 3
 176 139 236 88 293 88 c 3
 350 88 410 145 410 281 c 3
658 458 m 3
 611 458 580 422 560 366 c 1
 754 366 l 1
 743 409 716 458 658 458 c 3
EndSplineSet
Validated: 1
EndChar

StartChar: cedilla
Encoding: 184 184 125
Width: 330
Flags: W
HStem: -194 86<64.1494 171.216>
VStem: 172 107<-132 -62.4014>
LayerCount: 2
Back
Fore
SplineSet
113 -57 m 2
 84 -57 l 1
 149 36 l 1
 256 36 l 1
 219 -30 l 1
 254 -40 279 -72 279 -111 c 3
 279 -153 262 -194 166 -194 c 3
 114 -194 63 -180 30 -157 c 1
 70 -93 l 1
 79 -99 112 -108 138 -108 c 3
 157 -108 172 -103 172 -89 c 3
 172 -75 162 -57 113 -57 c 2
EndSplineSet
Validated: 1
EndChar

StartChar: oslash
Encoding: 248 248 126
Width: 591
Flags: W
HStem: -11 99<257.258 345.957> 461 100<227.475 311.473>
VStem: 35 135<198.396 394.12> 403 135<155.302 357.454>
DStem2: 107 57 194 -30 0.456524 0.889711<-37.6873 0 156.083 398.369 550.524 587.667>
LayerCount: 2
Back
SplineSet
35 275 m 0
 35 485 160 561 287 561 c 0
 312 561 339 557 361 552 c 1
 375 580 l 1
 507 580 l 1
 462 491 l 1
 505 444 538 370 538 275 c 0
 538 64 413 -11 287 -11 c 0
 260 -11 231 -7 208 -2 c 1
 194 -30 l 1
 62 -30 l 1
 106 58 l 1
 63 104 35 174 35 275 c 0
403 275 m 0
 403 308 401 336 394 359 c 1
 257 93 l 1
 267 90 277 88 287 88 c 0
 344 88 403 137 403 275 c 0
170 275 m 0
 170 242 171 219 177 196 c 1
 223 286 265 364 313 456 c 1
 303 459 295 461 287 461 c 0
 229 461 170 412 170 275 c 0
EndSplineSet
Fore
SplineSet
35 275 m 3
 35 485 160 561 287 561 c 3
 312 561 336 558 360 552 c 1
 375 580 l 1
 507 580 l 1
 463 494 l 1
 508 449 538 377 538 275 c 3
 538 64 413 -11 287 -11 c 3
 260 -11 234 -8 209 -1 c 1
 194 -30 l 1
 62 -30 l 1
 107 57 l 1
 64 102 35 172 35 275 c 3
312 457 m 1
 304 459 295 461 287 461 c 3
 229 461 170 412 170 275 c 3
 170 245 173 218 178 196 c 1
 312 457 l 1
393 358 m 1
 257 93 l 1
 267 90 277 88 287 88 c 3
 344 88 403 137 403 275 c 3
 403 307 399 335 393 358 c 1
EndSplineSet
Validated: 1
EndChar

StartChar: ogonek
Encoding: 731 731 127
Width: 323
Flags: W
HStem: -149 88<147.55 188.809>
VStem: 39 108<-60.6683 5.7683>
LayerCount: 2
Back
Fore
SplineSet
39 -48 m 3
 39 15 142 91 142 91 c 1
 214 48 l 1
 214 48 147 3 147 -46 c 3
 147 -56 154 -61 158 -61 c 3
 168 -61 187 -44 207 -19 c 1
 281 -87 l 1
 250 -122 206 -149 158 -149 c 3
 106 -149 39 -116 39 -48 c 3
EndSplineSet
Validated: 1
EndChar

StartChar: periodcentered
Encoding: 183 183 130
Width: 250
Flags: W
HStem: 205 148<62.25 183.5>
VStem: 38 169<228.548 329.752>
LayerCount: 2
Back
Fore
SplineSet
38 280 m 3
 38 322 74 353 124 353 c 3
 172 353 207 322 207 280 c 3
 207 236 172 205 124 205 c 3
 74 205 38 236 38 280 c 3
EndSplineSet
Validated: 1
EndChar

StartChar: Eth
Encoding: 208 208 131
Width: 731
Flags: W
HStem: 0 109<265 473.953> 350 103<49 124 265 436> 667 108<266.325 464.115>
VStem: 124 141<109 350 453 662.953> 582 142<243.974 532.043>
LayerCount: 2
Back
SplineSet
124 0 m 1
 124 350 l 1
 49 350 l 1
 49 453 l 1
 124 453 l 1
 124 755 l 1
 232 768 286 775 350 775 c 0
 540 775 723 717 723 380 c 0
 723 138 589 0 395 0 c 2
 124 0 l 1
436 453 m 1
 436 350 l 1
 265 350 l 1
 265 109 l 1
 395 109 l 2
 502 109 582 211 582 380 c 0
 582 550 533 667 351 667 c 0
 314 667 285 663 265 660 c 1
 265 453 l 1
 436 453 l 1
265 675 m 1
 265 660 l 1
 259 659 254 659 250 659 c 0
 247 658 241 657 236 657 c 2
 265 675 l 1
EndSplineSet
Fore
SplineSet
582 380 m 3
 582 550 533 667 352 667 c 3
 315 667 285 663 265 660 c 1
 265 453 l 1
 436 453 l 1
 436 350 l 1
 265 350 l 1
 265 109 l 1
 396 109 l 3
 502 109 582 211 582 380 c 3
124 350 m 1
 49 350 l 1
 49 453 l 1
 124 453 l 1
 124 755 l 1
 233 770 286 775 350 775 c 3
 541 775 724 717 724 380 c 3
 724 138 592 0 396 0 c 27
 290 0 124 0 124 0 c 1
 124 350 l 1
EndSplineSet
Validated: 1
EndChar

StartChar: eth
Encoding: 240 240 132
Width: 614
Flags: W
HStem: -7 104<224.767 346.006> 419 105<224.121 351.126>
VStem: 35 135<157.717 351.164> 422 134<202.499 355.683>
LayerCount: 2
Back
Fore
SplineSet
251 756 m 3
 265 756 277 755 288 754 c 1
 325 811 l 1
 415 752 l 1
 392 715 l 1
 503 639 556 481 556 355 c 3
 556 125 458 -7 285 -7 c 3
 95 -7 35 150 35 244 c 3
 35 405 132 524 276 524 c 3
 321 524 362 514 402 492 c 1
 387 543 362 593 329 620 c 1
 273 535 l 1
 182 589 l 1
 219 646 l 1
 188 638 158 619 133 603 c 1
 78 697 l 1
 118 724 169 756 251 756 c 3
285 97 m 3
 366 97 416 185 422 332 c 1
 373 393 326 419 276 419 c 3
 214 419 170 343 170 244 c 3
 170 189 198 97 285 97 c 3
EndSplineSet
Validated: 1
EndChar

StartChar: yen
Encoding: 165 165 133
Width: 620
Flags: MW
HStem: 160 100<60 234 374 547> 313 100<60 206 402 547>
VStem: 234 140<0 160 260 313>
DStem2: 135 770 -22 770 0.53825 -0.842786<0 314.841> 305 505 402 413 0.53657 0.843856<0 314.839>
LayerCount: 2
Back
Fore
SplineSet
547 260 m 1
 547 160 l 1
 374 160 l 1
 374 0 l 1
 234 0 l 1
 234 160 l 1
 60 160 l 1
 60 260 l 1
 234 260 l 1
 234 313 l 1
 60 313 l 1
 60 413 l 1
 206 413 l 1
 206 413 -22 770 -22 770 c 1
 135 770 l 1
 305 505 l 1
 475 770 l 1
 629 770 l 1
 402 413 l 1
 547 413 l 1
 547 313 l 1
 374 313 l 1
 374 260 l 1
 547 260 l 1
EndSplineSet
Validated: 1
EndChar

StartChar: Thorn
Encoding: 222 222 134
Width: 632
Flags: MW
HStem: 127 112<243.242 388.665> 573 109<229.333 378.73>
VStem: 62 141<0 152 271.967 548.948 658 770> 442 139<302.589 509.528>
LayerCount: 2
Back
Fore
SplineSet
203 0 m 1
 62 0 l 1
 62 770 l 1
 203 770 l 1
 203 658 l 1
 242 674 285 682 331 682 c 3
 479 682 581 576 581 423 c 3
 581 229 485 127 324 127 c 3
 276 127 236 137 203 152 c 1
 203 0 l 1
442 423 m 3
 442 511 390 573 303 573 c 3
 273 573 235 557 203 536 c 1
 203 288 l 1
 240 257 284 239 328 239 c 3
 396 239 442 299 442 423 c 3
EndSplineSet
Validated: 1
EndChar

StartChar: thorn
Encoding: 254 254 135
Width: 627
Flags: W
HStem: -11 112<257.922 384.336> 449 112<283.171 397.442>
VStem: 64 133<-243 32 149.655 371.37 508 756> 438 135<164.984 399.027>
LayerCount: 2
Back
Fore
SplineSet
197 -243 m 1
 64 -243 l 1
 64 756 l 1
 197 756 l 1
 197 508 l 1
 239 541 292 561 360 561 c 3
 491 561 573 428 573 283 c 3
 573 97 480 -11 329 -11 c 3
 288 -11 241 6 197 32 c 1
 197 -243 l 1
360 449 m 3
 282 449 227 387 197 343 c 1
 197 167 l 1
 239 128 291 101 329 101 c 3
 395 101 438 168 438 283 c 3
 438 369 408 449 360 449 c 3
EndSplineSet
Validated: 1
EndChar

StartChar: sterling
Encoding: 163 163 136
Width: 594
Flags: W
HStem: -11 106<312.823 423.37> 253 103<67 133 290 425> 719 103<368.172 430.65>
DStem2: 112 145 248 143 0.198545 0.980092<21.6485 110.019 242.14 614.485>
LayerCount: 2
Back
Fore
SplineSet
168 51 m 0
 145 51 107 -21 107 -21 c 1
 16 38 l 1
 16 38 47 126 112 145 c 1
 133 253 l 1
 67 253 l 1
 67 356 l 1
 153 356 l 1
 178 485 207 626 222 688 c 0
 251 797 352 822 395 822 c 3
 469 822 510 780 569 719 c 1
 480 647 l 1
 439 691 411 719 395 719 c 3
 386 719 365 709 354 661 c 0
 341 610 318 496 295 381 c 2
 290 356 l 1
 425 356 l 1
 425 253 l 1
 269 253 l 1
 248 143 l 1
 267 136 286 129 303 121 c 0
 331 108 360 95 384 95 c 3
 410 95 479 168 479 168 c 1
 560 87 l 1
 560 87 467 -11 384 -11 c 3
 330 -11 289 6 250 24 c 1
 251 24 l 1
 222 37 191 51 168 51 c 0
EndSplineSet
Validated: 1
EndChar

StartChar: paragraph
Encoding: 182 182 137
Width: 737
Flags: W
HStem: 679 91<451 529 641 712>
VStem: 9 442<373.84 599.984> 339 112<-238 243> 529 112<-238 679>
LayerCount: 2
Back
Fore
SplineSet
451 -238 m 1xb0
 339 -238 l 1
 339 243 l 1xb0
 310 230 272 216 229 216 c 3
 110 216 9 328 9 493 c 3xd0
 9 644 125 770 296 770 c 2
 712 770 l 1
 712 679 l 1
 641 679 l 1
 641 -238 l 1
 529 -238 l 1
 529 679 l 1
 451 679 l 1
 451 -238 l 1xb0
EndSplineSet
Validated: 1
EndChar

StartChar: zero.lnum
Encoding: 65537 -1 138
Width: 682
Flags: W
HStem: -14 111<266.974 396.783> 644 107<262.708 401.482>
VStem: 41 138<214.338 523.794> 482 138<214.338 531.596>
LayerCount: 2
Back
Fore
SplineSet
41 369 m 3
 41 659 182 751 332 751 c 3
 483 751 620 659 620 369 c 3
 620 78 483 -14 332 -14 c 3
 182 -14 41 78 41 369 c 3
482 369 m 3
 482 565 418 644 332 644 c 3
 248 644 179 565 179 369 c 3
 179 173 252 97 332 97 c 3
 412 97 482 173 482 369 c 3
EndSplineSet
Validated: 1
EndChar

StartChar: one.lnum
Encoding: 65538 -1 139
Width: 368
Flags: MW
VStem: 160 139<0 577>
LayerCount: 2
Back
Fore
SplineSet
299 0 m 1
 160 0 l 1
 160 577 l 1
 102 528 l 1
 21 620 l 1
 176 737 l 1
 299 737 l 1
 299 0 l 1
EndSplineSet
Validated: 1
EndChar

StartChar: two.lnum
Encoding: 65539 -1 140
Width: 541
Flags: W
HStem: 0 107<211 490> 644 107<194.212 311.112>
VStem: 339 134<483.206 614.391>
LayerCount: 2
Back
Fore
SplineSet
143 561 m 1
 99 557 l 1
 99 557 40 615 40 623 c 1
 70 674 136 750 255 751 c 3
 378 751 473 681 473 559 c 3
 473 453 318 243 211 107 c 1
 490 107 l 1
 490 0 l 1
 29 0 l 1
 29 81 l 1
 29 81 339 430 339 557 c 3
 339 615 295 644 254 644 c 3
 184 644 143 561 143 561 c 1
EndSplineSet
Validated: 1
EndChar

StartChar: three.lnum
Encoding: 65540 -1 141
Width: 548
Flags: W
HStem: -14 110<123.098 269.873> 642 109<168.833 267.66>
VStem: 279 133<527.864 630.487> 360 133<189.39 336.874>
LayerCount: 2
Back
Fore
SplineSet
114 556 m 1xe0
 33 636 l 1
 33 636 93 751 226 751 c 3
 326 751 412 683 412 586 c 3xe0
 412 537 382 494 346 461 c 1
 427 435 493 366 493 277 c 3
 493 77 319 -14 197 -14 c 3
 95 -14 9 61 9 61 c 1
 92 138 l 1
 92 138 141 96 196 96 c 3
 262 96 360 152 360 277 c 3xd0
 360 326 321 372 275 372 c 3
 226 372 177 357 159 352 c 1
 161 352 l 2
 153 349 115 349 115 349 c 1
 115 441 l 1
 202 473 279 517 279 586 c 3
 279 620 254 642 227 642 c 3
 160 642 114 556 114 556 c 1xe0
EndSplineSet
Validated: 1
EndChar

StartChar: four.lnum
Encoding: 65541 -1 142
Width: 626
Flags: MW
HStem: 172 107<196 357 497 595>
VStem: 357 140<0 172 279 497>
DStem2: 17 237 196 279 0.603059 0.797697<141.451 412.441>
LayerCount: 2
Back
Fore
SplineSet
595 279 m 1
 595 172 l 1
 497 172 l 1
 497 0 l 1
 357 0 l 1
 357 172 l 1
 17 172 l 1
 17 237 l 1
 395 737 l 1
 497 737 l 1
 497 279 l 1
 595 279 l 1
357 497 m 1
 196 279 l 1
 357 279 l 1
 357 497 l 1
196 279 m 1
 196 279 196 279 196 279 c 1
EndSplineSet
Validated: 1
EndChar

StartChar: five.lnum
Encoding: 65542 -1 143
Width: 601
Flags: W
HStem: -14 105<205.06 341.996> 404 104<207.696 351.87> 631 106<207 486>
VStem: 69 138<498 631> 407 132<165.667 349.865>
LayerCount: 2
Back
Fore
SplineSet
207 631 m 1
 207 498 l 1
 227 503 252 508 283 508 c 3
 451 508 539 411 539 280 c 3
 539 70 426 -14 273 -14 c 3
 135 -14 46 84 46 84 c 1
 120 174 l 1
 120 174 204 91 273 91 c 3
 347 91 407 145 407 278 c 3
 407 334 368 404 283 404 c 3
 247 404 211 398 171 370 c 1
 69 370 l 1
 69 737 l 1
 486 737 l 1
 486 631 l 1
 207 631 l 1
EndSplineSet
Validated: 1
EndChar

StartChar: six.lnum
Encoding: 65543 -1 144
Width: 613
Flags: W
HStem: -14 104<246.459 367.474> 362 105<271.132 387.441> 642 109<275.965 405.382>
VStem: 421 133<149.863 328.223>
LayerCount: 2
Back
Fore
SplineSet
331 467 m 3
 451 467 554 408 554 239 c 3
 554 146 496 -14 308 -14 c 3
 140 -14 44 113 44 340 c 3
 44 560 167 751 337 751 c 3
 431 751 513 687 531 674 c 1
 451 590 l 1
 451 590 391 642 340 642 c 3
 243 642 196 517 180 407 c 1
 231 453 284 467 331 467 c 3
308 90 m 3
 394 90 421 185 421 239 c 3
 421 332 379 362 331 362 c 3
 290 362 236 333 184 226 c 1
 202 137 247 90 308 90 c 3
EndSplineSet
Validated: 1
EndChar

StartChar: seven.lnum
Encoding: 65544 -1 145
Width: 511
Flags: W
HStem: 624 113<25 324>
LayerCount: 2
Back
Fore
SplineSet
25 624 m 1
 25 737 l 1
 485 737 l 1
 485 662 l 1
 409 502 162 33 61 -11 c 1
 -21 64 l 1
 42 102 230 435 324 624 c 1
 25 624 l 1
EndSplineSet
Validated: 1
EndChar

StartChar: eight.lnum
Encoding: 65545 -1 146
Width: 587
Flags: W
HStem: -14 101<209.955 362.271> 655 96<217.901 350.113>
VStem: 44 132<120.274 238.583> 62 133<517.839 634.004> 373 134<511.219 634.004> 391 134<114.547 224.592>
LayerCount: 2
Back
SplineSet
507 580 m 0xb0
 507 488 431 419 373 380 c 1xd0
 454 321 525 255 525 171 c 0
 525 -23 298 -14 284 -14 c 0
 271 -14 44 -21 44 171 c 0xc8
 45 263 117 339 180 383 c 1
 114 439 62 504 62 580 c 0
 62 709 179 751 284 751 c 0
 388 751 507 709 507 580 c 0xb0
391 171 m 0xc8
 391 219 336 268 266 320 c 1
 225 289 183 236 176 170 c 1
 179 87 278 87 284 87 c 0
 290 87 391 83 391 171 c 0xc8
195 580 m 0xb0
 195 529 236 486 284 446 c 1
 319 470 373 515 373 580 c 0
 373 639 327 655 284 655 c 0
 242 655 195 639 195 580 c 0xb0
299 435 m 1
 268 437 l 2
 272 439 278 442 284 446 c 1
 299 435 l 1
EndSplineSet
Fore
SplineSet
507 580 m 3xd8
 507 488 431 419 373 380 c 1xd8
 454 321 525 255 525 171 c 3
 525 24 392 -14 284 -14 c 3
 176 -14 44 26 44 171 c 3xe4
 44 263 117 339 180 383 c 1
 114 439 62 504 62 580 c 3
 62 709 179 751 284 751 c 3
 388 751 507 709 507 580 c 3xd8
391 171 m 3xe4
 391 219 336 268 266 320 c 1
 225 289 176 223 176 170 c 3
 176 114 232 87 284 87 c 3
 336 87 391 105 391 171 c 3xe4
195 580 m 3xd8
 195 529 236 486 284 446 c 1
 319 470 373 515 373 580 c 3
 373 639 327 655 284 655 c 3
 242 655 195 639 195 580 c 3xd8
284 446 m 1
 284 446 284 446 284 446 c 1
EndSplineSet
Validated: 1
EndChar

StartChar: nine.lnum
Encoding: 65546 -1 147
Width: 613
Flags: W
HStem: -14 109<189.24 314.703> 270 105<207.144 324.578> 647 104<226.983 347.92>
VStem: 40 134<408.777 587.137>
LayerCount: 2
Back
Fore
SplineSet
263 270 m 3
 144 270 40 329 40 498 c 3
 40 591 99 751 286 751 c 3
 454 751 551 624 551 398 c 0
 551 177 427 -14 258 -14 c 3
 163 -14 81 50 63 63 c 1
 144 147 l 1
 144 147 204 95 254 95 c 3
 351 95 398 220 414 330 c 1
 364 284 310 270 263 270 c 3
286 647 m 3
 201 647 174 552 174 498 c 3
 174 405 216 375 263 375 c 3
 305 375 359 404 410 511 c 1
 393 600 348 647 286 647 c 3
EndSplineSet
Validated: 1
EndChar

StartChar: ff
Encoding: 64256 64256 148
Width: 657
Flags: MW
HStem: 449 101<12 78 212 332 466 617> 706 101<220.945 319.467 473.845 572.049>
VStem: 78 134<0 449 550 700.209> 332 134<0 449 550 674.157>
LayerCount: 2
Back
Fore
SplineSet
466 622 m 2
 466 550 l 1
 617 550 l 1
 617 449 l 1
 466 449 l 1
 466 0 l 1
 332 0 l 1
 332 449 l 1
 212 449 l 1
 212 0 l 1
 78 0 l 1
 78 449 l 1
 12 449 l 1
 12 550 l 1
 78 550 l 1
 78 622 l 2
 78 729 123 807 251 807 c 3
 300 807 351 787 385 769 c 1
 412 791 453 807 505 807 c 7
 591 807 702 732 702 732 c 1
 625 655 l 1
 625 655 543 706 505 706 c 7
 468 706 467 669 466 622 c 2
212 622 m 2
 212 550 l 1
 332 550 l 1
 332 622 l 2
 332 640 333 657 337 675 c 1
 316 687 277 706 251 706 c 3
 215 706 213 669 212 622 c 2
EndSplineSet
Validated: 1
LCarets2: 1 0
Ligature2: "'liga' Standard Ligatures in Latin lookup 2 subtable" f f
EndChar

StartChar: f_f_i
Encoding: 64259 64259 149
Width: 856
Flags: MW
HStem: 449 101<18 84 218 338 471 628> 706 101<226.945 325.869 482.161 584.51>
VStem: 84 134<0 449 550 700.209> 338 133<0 449 550 675.202> 628 133<0 449>
LayerCount: 2
Back
Fore
SplineSet
471 622 m 2
 471 550 l 1
 761 550 l 1
 761 0 l 1
 628 0 l 1
 628 449 l 1
 471 449 l 1
 471 0 l 1
 338 0 l 1
 338 449 l 1
 218 449 l 1
 218 0 l 1
 84 0 l 1
 84 449 l 1
 18 449 l 1
 18 550 l 1
 84 550 l 1
 84 622 l 2
 84 729 129 807 257 807 c 3
 302 807 360 785 395 768 c 1
 423 793 461 807 517 807 c 3
 626 807 755 707 755 707 c 1
 678 630 l 1
 678 630 569 706 518 706 c 3
 479 706 472 669 471 622 c 2
218 622 m 2
 218 550 l 1
 338 550 l 1
 338 622 l 2
 338 640 339 659 342 676 c 1
 322 687 284 706 257 706 c 3
 221 706 219 669 218 622 c 2
EndSplineSet
Validated: 1
Ligature2: "'liga' Standard Ligatures in Latin lookup 2 subtable" f f i
EndChar

StartChar: f_f_l
Encoding: 64260 64260 150
Width: 893
Flags: MW
HStem: -11 102<776.479 840> 449 101<19 86 219 339 473 624> 706 101<228.42 326.549 481.093 575.569>
VStem: 86 133<0 449 550 700.209> 339 134<0 449 550 674.157> 638 134<105.204 662.223 772 803>
LayerCount: 2
Back
Fore
SplineSet
219 622 m 2
 219 550 l 1
 339 550 l 1
 339 622 l 2
 339 640 340 657 344 675 c 1
 323 687 284 706 259 706 c 3
 222 706 220 669 219 622 c 2
473 622 m 2
 473 550 l 1
 624 550 l 1
 624 449 l 1
 473 449 l 1
 473 0 l 1
 339 0 l 1
 339 449 l 1
 219 449 l 1
 219 0 l 1
 86 0 l 1
 86 449 l 1
 19 449 l 1
 19 550 l 1
 86 550 l 1
 86 622 l 2
 86 729 130 807 259 807 c 3
 307 807 358 787 392 769 c 1
 420 791 460 807 512 807 c 3
 551 807 599 790 638 772 c 1
 638 803 l 1
 772 803 l 1
 772 154 l 2
 772 135 772 109 776 105 c 0
 786 94 810 91 845 91 c 1
 840 -11 l 1
 796 -11 713 -7 680 26 c 0
 638 67 638 118 638 154 c 2
 638 650 l 1
 607 669 540 706 512 706 c 3
 476 706 474 669 473 622 c 2
EndSplineSet
Validated: 1
Ligature2: "'liga' Standard Ligatures in Latin lookup 2 subtable" f f l
EndChar

StartChar: fj
Encoding: 65547 -1 151
Width: 585
Flags: MW
HStem: 449 101<13 80 214 370> 706 101<224.633 326.51>
VStem: 80 134<0 449 550 696.047> 370 134<-103.034 449>
LayerCount: 2
Back
Fore
SplineSet
214 622 m 2
 214 550 l 1
 504 550 l 1
 504 -22 l 2
 504 -147 405 -239 327 -267 c 1
 291 -152 l 1
 330 -147 370 -88 370 -22 c 2
 370 449 l 1
 214 449 l 1
 214 0 l 1
 80 0 l 1
 80 449 l 1
 13 449 l 1
 13 550 l 1
 80 550 l 1
 80 622 l 2
 80 729 132 807 259 807 c 3
 368 807 497 707 497 707 c 1
 420 630 l 1
 420 630 311 706 260 706 c 3
 221 706 215 669 214 622 c 2
EndSplineSet
Validated: 1
LCarets2: 1 0
Ligature2: "'liga' Standard Ligatures in Latin lookup 2 subtable" f j
EndChar

StartChar: g
Encoding: 103 103 152
Width: 618
Flags: W
HStem: -257 104<213.931 388.347> 38 105<206.24 406.856> 184 96<232.139 353.524> 468 95<225.495 347.156> 505 105<461.878 562.666>
VStem: 40 133<-115.714 6.41541> 58 134<309.816 436.101> 386 133<312.737 436.532> 450 134<-96.4769 7.12637>
LayerCount: 2
Back
SplineSet
192 381 m 0xf3
 192 290 253 280 289 280 c 0
 326 280 386 297 386 381 c 0
 386 444 326 468 289 468 c 0
 253 468 192 444 192 381 c 0xf3
71 132 m 0
 71 164 95 196 129 227 c 1
 90 258 58 307 58 381 c 0
 58 510 202 563 289 563 c 0xf3
 305 563 323 561 342 557 c 1
 384 591 438 610 493 610 c 0
 515 610 546 603 579 593 c 1
 560 490 l 1
 530 500 507 505 493 505 c 0
 484 505 472 503 461 501 c 1
 493 472 519 430 519 381 c 0
 519 217 376 184 289 184 c 0
 274 184 257 184 242 186 c 1
 223 170 207 152 206 137 c 1
 211 141 245 144 270 143 c 0
 276 143 287 142 291 142 c 0
 426 135 584 109 584 -29 c 0
 584 -152 493 -257 293 -257 c 0
 160 -257 40 -173 40 -74 c 0xed
 41 7 63 35 109 69 c 1
 85 84 71 103 71 132 c 0
293 -153 m 0
 401 -153 450 -95 450 -29 c 0xf280
 450 23 360 33 287 37 c 0
 249 37 246 38 232 38 c 1
 199 17 173 -5 173 -74 c 0
 173 -118 235 -153 293 -153 c 0
EndSplineSet
Fore
SplineSet
192 381 m 3xf3
 192 290 253 280 289 280 c 3
 326 280 386 297 386 381 c 3
 386 444 326 468 289 468 c 3
 253 468 192 444 192 381 c 3xf3
71 132 m 3
 71 164 95 196 129 227 c 1
 90 258 58 307 58 381 c 3
 58 510 202 563 289 563 c 3xf2
 305 563 323 561 342 557 c 1
 384 591 438 610 493 610 c 3
 515 610 546 603 579 593 c 1
 560 490 l 1
 530 500 507 505 493 505 c 3
 484 505 472 503 461 501 c 1
 493 472 519 430 519 381 c 3xeb
 519 217 376 184 289 184 c 3
 274 184 257 184 242 186 c 1
 223 170 207 152 206 137 c 1
 210 140 237 143 260 143 c 3
 269 143 283 142 291 142 c 0
 413 142 584 109 584 -29 c 3
 584 -152 493 -257 293 -257 c 3
 160 -257 40 -173 40 -74 c 3xec80
 40 7 63 35 109 69 c 1
 85 84 71 103 71 132 c 3
293 -153 m 3
 401 -153 450 -95 450 -29 c 3
 450 23 360 33 287 37 c 0
 249 37 246 38 232 38 c 1
 199 17 173 -5 173 -74 c 0xe480
 173 -118 235 -153 293 -153 c 3
EndSplineSet
Validated: 1
EndChar

StartChar: e
Encoding: 101 101 153
Width: 582
Flags: W
HStem: -11 103<225.346 356.646> 261 105<185 379> 458 103<228.745 339.267>
VStem: 35 133<155.764 261>
LayerCount: 2
Back
SplineSet
35 269 m 0
 35 428 132 561 283 561 c 0
 501 561 519 355 519 315 c 2
 519 261 l 1
 168 261 l 1
 168 160 210 92 287 92 c 0
 310 92 358 89 443 199 c 1
 526 121 l 1
 415 -16 331 -11 287 -11 c 0
 119 -11 35 119 35 269 c 0
283 458 m 0
 236 458 205 422 185 366 c 1
 379 366 l 1
 368 409 341 458 283 458 c 0
EndSplineSet
Fore
SplineSet
35 269 m 3
 35 428 132 561 283 561 c 3
 501 561 519 355 519 315 c 2
 519 261 l 1
 168 261 l 1
 168 160 210 92 287 92 c 3
 325 92 364 102 443 199 c 1
 526 121 l 1
 434 3 353 -11 287 -11 c 3
 119 -11 35 119 35 269 c 3
283 458 m 3
 236 458 205 422 185 366 c 1
 379 366 l 1
 368 409 341 458 283 458 c 3
EndSplineSet
Validated: 1
EndChar

StartChar: f
Encoding: 102 102 154
Width: 398
Flags: MW
HStem: 449 101<12 79 213 364> 723 101<221.746 319.049>
VStem: 79 134<0 449 550 717.209>
LayerCount: 2
Back
Fore
SplineSet
213 639 m 2
 213 550 l 1
 364 550 l 1
 364 449 l 1
 213 449 l 1
 213 0 l 1
 79 0 l 1
 79 449 l 1
 12 449 l 1
 12 550 l 1
 79 550 l 1
 79 639 l 2
 79 746 124 824 252 824 c 3
 338 824 449 749 449 749 c 1
 372 672 l 1
 372 672 290 723 252 723 c 3
 215 723 214 686 213 639 c 2
EndSplineSet
Validated: 1
EndChar

StartChar: ffi
Encoding: 65549 -1 250
Width: 1062
Flags: MW
HStem: 449 101<12 78 212 331 466 585 719 853> 706 101<220.945 318.755 474.089 571.262 726.845 825.049>
VStem: 78 134<0 449 550 700.209> 331 135<0 449 550 675.202> 585 134<0 449 550 674.157> 853 134<0 449>
LayerCount: 2
Back
Fore
SplineSet
719 622 m 2
 719 550 l 1
 987 550 l 1
 987 0 l 1
 853 0 l 1
 853 449 l 1
 719 449 l 1
 719 0 l 1
 585 0 l 1
 585 449 l 1
 466 449 l 1
 466 0 l 1
 331 0 l 1
 331 449 l 1
 212 449 l 1
 212 0 l 1
 78 0 l 1
 78 449 l 1
 12 449 l 1
 12 550 l 1
 78 550 l 1
 78 622 l 2
 78 729 123 807 251 807 c 3
 299 807 350 787 384 769 c 1
 411 793 450 807 504 807 c 3
 556 807 604 787 638 769 c 1
 665 791 706 807 758 807 c 3
 844 807 955 732 955 732 c 1
 878 655 l 1
 878 655 796 706 758 706 c 3
 721 706 720 669 719 622 c 2
212 622 m 2
 212 550 l 1
 331 550 l 1
 331 622 l 2
 331 641 332 659 335 676 c 1
 314 688 276 706 251 706 c 3
 215 706 213 669 212 622 c 2
466 622 m 1
 466 550 l 1
 585 550 l 1
 585 622 l 2
 585 640 586 657 590 675 c 1
 563 689 527 706 505 706 c 3
 468 706 467 668 466 622 c 1
EndSplineSet
Validated: 1
EndChar

StartChar: dotlessj
Encoding: 567 567 257
Width: 225
Flags: W
VStem: 17 133<-103.034 550>
LayerCount: 2
Back
Fore
SplineSet
17 550 m 1
 150 550 l 1
 150 -22 l 2
 150 -147 52 -239 -26 -267 c 1
 -62 -152 l 1
 -24 -147 17 -88 17 -22 c 2
 17 550 l 1
EndSplineSet
Validated: 1
EndChar

StartChar: exclamdown
Encoding: 161 161 282
Width: 297
Flags: W
HStem: 623 155<84.8819 206.916>
VStem: 58 175<649.01 751.42> 69 152<-47 288.462> 82 126<240.538 576>
LayerCount: 2
Back
Fore
SplineSet
82 576 m 1x90
 208 576 l 1x90
 221 -47 l 1
 69 -47 l 1xa0
 82 576 l 1x90
58 700 m 3xc0
 58 744 96 778 147 778 c 3
 196 778 233 744 233 700 c 3
 233 656 196 623 147 623 c 3
 96 623 58 656 58 700 c 3xc0
EndSplineSet
Validated: 1
EndChar

StartChar: questiondown
Encoding: 191 191 283
Width: 507
Flags: W
HStem: -47 103<170.663 292.225> 636 142<186.545 305.979>
VStem: 10 138<79.628 208.605> 165 163<658.005 754.902> 232 131<432.333 517.223>
LayerCount: 2
Back
Fore
SplineSet
194 534 m 1xe8
 286 608 l 1
 332 566 363 530 363 473 c 3
 363 408 315 358 254 304 c 0
 206 259 148 203 148 142 c 3
 148 111 156 56 237 56 c 3
 314 56 387 194 387 194 c 1
 477 108 l 1
 477 108 391 -47 237 -47 c 3
 42 -47 10 73 10 143 c 3
 10 251 93 323 166 388 c 0
 202 421 232 452 232 474 c 3
 232 494 218 511 194 534 c 1xe8
328 706 m 3xf0
 328 665 293 636 246 636 c 3
 199 636 165 665 165 706 c 3
 165 747 199 778 246 778 c 3
 293 778 328 747 328 706 c 3xf0
EndSplineSet
Validated: 1
EndChar
